<?xml version="1.0" encoding="UTF-8"?>
<svg id="Ebene_2" data-name="Ebene 2" xmlns="http://www.w3.org/2000/svg" viewBox="0 0 65.1 50.3">
  <defs>
    <style>
      .cls-1 {
        fill: #70dc80;
        stroke-width: 0px;
      }
    </style>
  </defs>
  <g id="Capa_4" data-name="Capa 4">
    <path class="cls-1" d="m4.44,38.47c-.82,0-1.48-.66-1.48-1.48V4.44c0-.82.66-1.48,1.48-1.48h47.35c.82,0,1.48.66,1.48,1.48s.66,1.48,1.48,1.48,1.48-.66,1.48-1.48c0-2.45-1.99-4.44-4.44-4.44H4.44C1.99,0,0,1.99,0,4.44v32.55c0,2.45,1.99,4.44,4.44,4.44.82,0,1.48-.66,1.48-1.48s-.66-1.48-1.48-1.48Zm23.67,0h5.92c.82,0,1.48-.66,1.48-1.48s-.66-1.48-1.48-1.48h-5.92c-.82,0-1.48.66-1.48,1.48s.66,1.48,1.48,1.48Zm-11.84,5.92h11.84c.82,0,1.48-.66,1.48-1.48s-.66-1.48-1.48-1.48h-11.84c-.82,0-1.48.66-1.48,1.48s.66,1.48,1.48,1.48ZM60.66,8.88H13.32c-2.45,0-4.44,1.99-4.44,4.44v32.55c0,2.45,1.99,4.44,4.44,4.44h47.35c2.45,0,4.44-1.99,4.44-4.44V13.32c0-2.45-1.99-4.44-4.44-4.44Zm1.48,36.99c0,.82-.66,1.48-1.48,1.48H13.32c-.82,0-1.48-.66-1.48-1.48v-16.28h50.3v16.28Zm0-19.23H11.84v-5.92h50.3v5.92Zm0-8.88H11.84v-4.44c0-.82.66-1.48,1.48-1.48h47.35c.82,0,1.48.66,1.48,1.48v4.44Zm-45.87,20.71h5.92c.82,0,1.48-.66,1.48-1.48s-.66-1.48-1.48-1.48h-5.92c-.82,0-1.48.66-1.48,1.48s.66,1.48,1.48,1.48Z"/>
  </g>
</svg>