<svg xmlns="http://www.w3.org/2000/svg"  viewBox="0 0 100 100" width="100px" height="100px"><path fill="#a0d2a1" d="M15.745,17c-6.776,10.54,6,18,6,18c7,11,15,11,20,8c5.752-3.451,8-11,8-19c0-7.071,2-14,2-14 S24.745,3,15.745,17z"/><path fill="#8cc78c" d="M22.213,34.596c0,0,6.702-18.574,29.745-24.191l-2.17,20.17 C49.787,30.574,40.277,59.617,22.213,34.596z"/><path fill="#a0d2a1" d="M89.454,40.259c-5.647-11.185-18.556-3.958-18.556-3.958C57.867,36.755,53.81,43.649,53.859,49.48 c0.057,6.708,5.423,12.474,12.318,16.531c6.094,3.586,11.051,8.824,11.051,8.824S96.955,55.116,89.454,40.259z"/><path fill="#8cc78c" d="M71.009,36.909c0,0,12.609,15.197,5.763,37.905l-16.283-12.1 C60.489,62.713,40.283,39.787,71.009,36.909z"/><path fill="#a0d2a1" d="M32.443,93.631c12.469,1.234,13.295-13.537,13.295-13.537c6.607-11.24,2.965-18.363-1.982-21.449 c-5.692-3.55-13.436-2.115-20.559,1.527C16.9,63.391,9.821,64.765,9.821,64.765S15.88,91.991,32.443,93.631z"/><path fill="#8cc78c" d="M45.165,79.861c0,0-19.589,2.489-35.081-15.47l18.947-7.251 C29.03,57.141,59.219,52.387,45.165,79.861z"/><path fill="#1f212b" d="M19.999,52c-0.467,0-0.885-0.328-0.979-0.804c-0.081-0.406-1.862-9.596,1.622-15.885 c-1.854-1.278-6.142-4.691-7.321-9.604c-0.741-3.087-0.122-6.198,1.838-9.248C24.444,2.016,51.12,8.738,52.251,9.032 c0.261,0.067,0.484,0.238,0.618,0.473s0.167,0.513,0.092,0.772C52.941,10.345,51,17.16,51,24c0,9.522-3.014,16.574-8.485,19.857 c-5.383,3.23-13.465,2.984-20.444-6.953c-2.685,5.645-1.107,13.812-1.09,13.9c0.108,0.541-0.244,1.067-0.785,1.176 C20.129,51.993,20.063,52,19.999,52z M22.494,34.13c0.138,0.078,0.259,0.19,0.35,0.333c8.062,12.668,16.308,9.081,18.642,7.68 C48.024,38.22,49,29.092,49,24c0-5.611,1.211-11.054,1.768-13.259c-4.859-1.057-26.366-4.962-33.927,6.8 c-1.652,2.57-2.184,5.157-1.579,7.69C16.515,30.472,22.198,33.953,22.494,34.13z"/><path fill="#1f212b" d="M22,35.5c-0.049,0-0.1-0.007-0.15-0.023c-0.264-0.082-0.41-0.363-0.327-0.627 c0.056-0.177,5.862-17.837,30.331-25.328c0.264-0.079,0.543,0.068,0.625,0.332c0.081,0.265-0.068,0.544-0.332,0.625 c-23.972,7.337-29.616,24.499-29.67,24.671C22.41,35.363,22.213,35.5,22,35.5z"/><path fill="#1f212b" d="M44.5,22c-0.107,0-0.215-0.034-0.307-0.105c-4.232-3.291-11.462-0.944-11.535-0.92 c-0.262,0.089-0.545-0.056-0.632-0.316c-0.087-0.263,0.054-0.545,0.316-0.633c0.317-0.104,7.809-2.541,12.465,1.08 c0.218,0.169,0.257,0.483,0.087,0.701C44.796,21.934,44.648,22,44.5,22z"/><path fill="#1f212b" d="M28,25.5c-0.015,0-0.03-0.001-0.046-0.002c-0.275-0.025-0.478-0.269-0.453-0.543 c0.251-2.766-0.854-5.279-1.827-6.901c-0.142-0.236-0.065-0.544,0.172-0.686c0.236-0.144,0.543-0.064,0.686,0.172 c1.049,1.749,2.241,4.472,1.965,7.505C28.474,25.305,28.256,25.5,28,25.5z"/><path fill="#1f212b" d="M25.161,16.888c-0.153,0-0.304-0.069-0.402-0.202c-0.621-0.836-1.108-1.327-1.113-1.332 c-0.195-0.196-0.194-0.513,0.001-0.707c0.196-0.195,0.513-0.194,0.707,0c0.022,0.021,0.54,0.543,1.208,1.443 c0.165,0.222,0.119,0.534-0.103,0.699C25.369,16.855,25.265,16.888,25.161,16.888z"/><path fill="#1f212b" d="M42.5,34c-0.146,0-0.29-0.063-0.389-0.185c-0.42-0.518-0.9-0.995-1.425-1.418 c-0.215-0.174-0.249-0.488-0.075-0.703c0.173-0.215,0.487-0.25,0.703-0.076c0.579,0.468,1.109,0.994,1.574,1.566 c0.174,0.215,0.142,0.529-0.073,0.703C42.723,33.963,42.611,34,42.5,34z"/><path fill="#1f212b" d="M39.241,31.355c-0.079,0-0.159-0.019-0.233-0.059c-5.805-3.072-14.131-1.024-14.215-1.004 c-0.268,0.071-0.54-0.095-0.607-0.362c-0.067-0.268,0.095-0.539,0.362-0.606c0.357-0.09,8.785-2.162,14.928,1.09 c0.244,0.129,0.337,0.432,0.208,0.676C39.594,31.259,39.42,31.355,39.241,31.355z"/><path fill="#1f212b" d="M77.099,76.056c-0.004,0-0.009,0-0.014,0c-0.27-0.004-0.527-0.116-0.712-0.312 c-0.049-0.052-4.938-5.182-10.833-8.649c-8.206-4.83-12.756-11.004-12.81-17.385c-0.054-6.277,4.257-13.119,16.361-14.094 c-3.505-5.186-11.341-7.959-11.426-7.989c-0.522-0.181-0.798-0.751-0.616-1.272c0.181-0.521,0.752-0.8,1.272-0.616 c0.391,0.136,9.214,3.262,12.868,9.454c2.041-0.949,7.159-2.916,11.991-1.438c3.036,0.927,5.403,3.038,7.037,6.273 c7.739,15.328-11.585,34.909-12.411,35.735C77.618,75.95,77.364,76.056,77.099,76.056z M71.267,37.388 c-0.137,0.079-0.295,0.126-0.464,0.132c-15.006,0.523-16.096,9.449-16.073,12.172c0.065,7.625,7.437,13.096,11.825,15.678 c4.835,2.846,8.912,6.65,10.53,8.249c3.375-3.65,17.648-20.207,11.347-32.688c-1.377-2.728-3.337-4.497-5.827-5.261 C77.452,34.089,71.568,37.224,71.267,37.388z"/><path fill="#1f212b" d="M77.099,75.556c-0.039,0-0.078-0.004-0.117-0.014c-0.269-0.064-0.434-0.334-0.37-0.603 c5.826-24.349-6.095-37.949-6.216-38.084c-0.185-0.205-0.168-0.521,0.037-0.706c0.204-0.185,0.521-0.17,0.706,0.036 c0.125,0.138,12.4,14.1,6.446,38.986C77.53,75.401,77.325,75.556,77.099,75.556z"/><path fill="#1f212b" d="M70.992,63.259c-0.199,0-0.387-0.119-0.465-0.315c-0.102-0.257,0.024-0.548,0.28-0.649 c4.984-1.978,6.627-9.4,6.644-9.475c0.058-0.27,0.323-0.438,0.593-0.385c0.27,0.059,0.442,0.323,0.384,0.594 c-0.069,0.326-1.768,8.019-7.252,10.195C71.116,63.247,71.053,63.259,70.992,63.259z"/><path fill="#1f212b" d="M83.387,49.284c-2.034,0-4.914-0.376-7.335-2.114c-0.225-0.161-0.276-0.474-0.115-0.698 c0.161-0.224,0.473-0.276,0.698-0.114c2.255,1.619,4.992,1.949,6.874,1.926c0.001,0,0.002,0,0.004,0 c0.274,0,0.498,0.222,0.5,0.496c0.002,0.276-0.22,0.502-0.496,0.504C83.474,49.283,83.431,49.284,83.387,49.284z"/><path fill="#1f212b" d="M85.206,49.185c-0.252,0-0.469-0.19-0.497-0.446c-0.03-0.274,0.169-0.521,0.444-0.551 c1.035-0.111,1.706-0.282,1.712-0.284c0.265-0.065,0.54,0.092,0.609,0.359s-0.091,0.54-0.358,0.609 c-0.03,0.008-0.742,0.189-1.856,0.31C85.242,49.184,85.224,49.185,85.206,49.185z"/><path fill="#1f212b" d="M61.663,55.449c-0.243,0-0.457-0.178-0.494-0.425c-0.042-0.273,0.146-0.528,0.419-0.569 c0.657-0.1,1.312-0.271,1.945-0.51c0.258-0.1,0.546,0.033,0.644,0.291c0.098,0.259-0.033,0.547-0.292,0.645 c-0.699,0.264-1.421,0.453-2.148,0.562C61.713,55.447,61.688,55.449,61.663,55.449z"/><path fill="#1f212b" d="M65.596,53.982c-0.168,0-0.332-0.084-0.426-0.237c-0.145-0.235-0.072-0.544,0.164-0.688 c5.586-3.44,8.051-11.659,8.075-11.742c0.078-0.265,0.356-0.414,0.621-0.339c0.265,0.077,0.417,0.355,0.339,0.62 c-0.103,0.352-2.593,8.668-8.51,12.312C65.776,53.958,65.686,53.982,65.596,53.982z"/><path fill="#1f212b" d="M33.775,94.477c-0.504,0-1.019-0.025-1.547-0.078c-17.086-1.691-23.246-28.504-23.5-29.645 c-0.059-0.263-0.008-0.539,0.14-0.765s0.381-0.382,0.646-0.434c0.069-0.014,7.021-1.388,13.111-4.502 c8.479-4.332,16.13-4.861,21.543-1.485c5.327,3.322,8.789,10.63,3.117,21.368c6.247-0.179,12.801-5.301,12.872-5.357 c0.433-0.344,1.062-0.27,1.404,0.164c0.343,0.433,0.27,1.062-0.163,1.404c-0.324,0.256-7.674,6.047-14.881,5.787 c-0.294,2.231-1.38,7.604-5.219,10.891C39.24,93.588,36.714,94.477,33.775,94.477z M10.925,65.297 c1.271,4.807,7.586,25.733,21.5,27.111c3.04,0.3,5.586-0.403,7.565-2.096c4.097-3.501,4.608-10.146,4.632-10.49 c0.006-0.158,0.051-0.316,0.137-0.463c7.609-12.944,0.662-18.652-1.649-20.094c-6.469-4.036-15.041-0.748-19.574,1.569 C18.54,63.39,13.143,64.789,10.925,65.297z"/><path fill="#1f212b" d="M42.663,80.539c-5.966,0-19.802-1.708-33.317-15.654c-0.192-0.198-0.188-0.515,0.011-0.707 c0.198-0.191,0.514-0.188,0.707,0.012C27.51,82.191,45.357,79.405,45.538,79.373c0.269-0.048,0.53,0.138,0.577,0.409 c0.046,0.272-0.137,0.53-0.41,0.577C45.661,80.366,44.558,80.539,42.663,80.539z"/><path fill="#1f212b" d="M27.931,77.619c-0.126,0-0.253-0.048-0.351-0.144c-0.238-0.233-5.818-5.794-4.713-11.59 c0.052-0.271,0.307-0.451,0.585-0.397c0.271,0.052,0.449,0.313,0.397,0.585c-1.004,5.267,4.377,10.636,4.432,10.689 c0.197,0.193,0.199,0.51,0.006,0.707C28.189,77.569,28.06,77.619,27.931,77.619z"/><path fill="#1f212b" d="M28.436,84.544c-0.09,0-0.182-0.024-0.264-0.076c-0.234-0.146-0.306-0.454-0.16-0.688 c1.081-1.73,2.961-4.031,5.788-5.166c0.258-0.103,0.548,0.021,0.65,0.277c0.103,0.257-0.021,0.548-0.277,0.65 c-2.577,1.034-4.311,3.164-5.312,4.768C28.765,84.461,28.603,84.544,28.436,84.544z"/><path fill="#1f212b" d="M26.904,87.691c-0.051,0-0.103-0.008-0.154-0.024c-0.263-0.085-0.407-0.366-0.322-0.629 c0.009-0.029,0.237-0.729,0.734-1.733c0.122-0.246,0.421-0.349,0.67-0.227c0.248,0.122,0.349,0.422,0.227,0.67 c-0.461,0.934-0.677,1.591-0.679,1.598C27.311,87.557,27.115,87.691,26.904,87.691z"/><path fill="#1f212b" d="M34.308,64.812c-0.034,0-0.068-0.003-0.103-0.011c-0.271-0.057-0.444-0.321-0.387-0.592 c0.152-0.729,0.38-1.44,0.677-2.114c0.112-0.252,0.408-0.366,0.659-0.255c0.253,0.111,0.367,0.406,0.256,0.659 c-0.269,0.609-0.476,1.254-0.614,1.915C34.747,64.649,34.54,64.812,34.308,64.812z"/><path fill="#1f212b" d="M39.783,80.353c-0.139,0-0.277-0.058-0.376-0.17c-0.242-0.276-5.924-6.838-5.826-13.787 c0.004-0.277,0.206-0.52,0.507-0.493c0.276,0.004,0.497,0.231,0.493,0.507c-0.093,6.569,5.521,13.049,5.578,13.113 c0.182,0.208,0.161,0.524-0.046,0.706C40.018,80.312,39.9,80.353,39.783,80.353z"/></svg>