<?xml version="1.0" encoding="UTF-8"?>
<svg id="Ebene_2" data-name="Ebene 2" xmlns="http://www.w3.org/2000/svg" viewBox="0 0 61 69.64">
  <defs>
    <style>
      .cls-1 {
        fill: #70dc80;
        stroke-width: 0px;
      }
    </style>
  </defs>
  <g id="Capa_4" data-name="Capa 4">
    <g>
      <path class="cls-1" d="m40.48,28.93h-.84c-.47.02-.84.41-.82.88.02.44.37.8.81.82v37.1h-2.56c-.76,0-1.38-.62-1.38-1.38v-11.59c.02-.47-.35-.87-.82-.89-.47-.02-.87.35-.89.82,0,.02,0,.05,0,.07v11.59c0,1.7,1.38,3.08,3.08,3.08h20.85c1.7,0,3.08-1.38,3.08-3.08v-34.34c0-1.7-1.38-3.08-3.08-3.08h-17.44Zm.85,1.7h3.91v37.1h-3.91V30.63Zm17.97,1.38v34.34c0,.76-.62,1.38-1.38,1.38h-10.98V30.63h10.98c.76,0,1.38.62,1.38,1.38,0,0,0,0,0,0h0Z"/>
      <path class="cls-1" d="m50.28,60.74c.47,0,.85-.38.85-.85v-8.52c-.02-.47-.42-.83-.89-.82-.44.02-.8.37-.82.82v8.52c0,.47.38.85.85.85Z"/>
      <path class="cls-1" d="m49.81,48.21s.1.06.15.08c.05.02.1.03.16.05.11.02.22.02.33,0,.05-.01.11-.03.16-.05.05-.02.1-.05.15-.08.05-.03.09-.07.13-.11.16-.16.25-.38.25-.6,0-.06,0-.11-.02-.17-.02-.11-.07-.21-.13-.31-.06-.09-.14-.17-.23-.23-.05-.03-.1-.06-.15-.08-.05-.02-.1-.04-.16-.05-.11-.02-.22-.02-.33,0-.05.01-.11.03-.16.05-.05.02-.1.05-.15.08-.05.03-.09.07-.13.11-.04.04-.08.08-.11.13-.03.05-.06.1-.08.15-.02.05-.04.1-.05.16-.01.05-.01.11-.01.17,0,.23.09.44.25.6.04.04.08.07.13.11Z"/>
      <path class="cls-1" d="m49.49,44.09c.02.05.05.1.08.15.03.05.07.09.11.13.16.16.38.25.6.25.06,0,.11,0,.17-.01.05-.01.11-.03.16-.05.05-.02.1-.05.15-.08.05-.03.09-.07.13-.11.04-.04.08-.08.11-.13.03-.05.06-.1.08-.15.02-.05.04-.1.05-.16.02-.11.02-.22,0-.33-.01-.05-.03-.11-.05-.16-.02-.05-.05-.1-.08-.15-.03-.05-.07-.09-.11-.13-.04-.04-.08-.08-.13-.11-.05-.03-.1-.06-.15-.08-.05-.02-.1-.04-.16-.05-.11-.02-.22-.02-.33,0-.05.01-.11.03-.16.05-.05.02-.1.05-.15.08-.05.03-.09.07-.13.11-.04.04-.07.08-.11.13-.03.05-.06.1-.08.15-.02.05-.04.1-.05.16-.02.11-.02.22,0,.33.01.05.03.11.05.16Z"/>
      <path class="cls-1" d="m49.49,40.35c.02.05.05.1.08.15.03.05.07.09.11.13.04.04.08.08.13.11.05.03.1.06.15.08.05.02.11.04.16.05.05.01.11.02.17.02.22,0,.44-.09.59-.25.04-.04.08-.08.11-.13.03-.05.06-.1.08-.15.02-.05.04-.11.05-.16.02-.11.02-.22,0-.33-.01-.05-.03-.11-.05-.16-.02-.05-.05-.1-.08-.15-.03-.05-.07-.09-.11-.13-.04-.04-.08-.08-.13-.11-.05-.03-.1-.06-.15-.08-.05-.02-.1-.04-.16-.05-.11-.02-.22-.02-.33,0-.05.01-.11.03-.16.05-.05.02-.1.05-.15.08-.05.03-.09.07-.13.11-.04.04-.08.08-.11.13-.03.05-.06.1-.08.15-.02.05-.04.11-.05.16-.02.11-.02.22,0,.33.01.05.03.11.05.16Z"/>
      <path class="cls-1" d="m3.76,69.64h23.63c2.08,0,3.76-1.69,3.76-3.76v-8.79c0-3.27,2.05-5.45,3.78-6.7,1.41-1.02,2.25-2.65,2.26-4.39V8.07c0-2.85-2.31-5.15-5.16-5.16h-.99c-.4-1.7-1.91-2.91-3.66-2.91H3.76C1.68,0,0,1.69,0,3.76v62.12c0,2.08,1.68,3.76,3.76,3.76ZM35.48,8.07v37.93c0,1.2-.59,2.32-1.56,3.01-1.07.76-2.01,1.7-2.78,2.76V4.61h.89c1.91,0,3.45,1.55,3.45,3.46ZM1.7,3.76c0-1.14.92-2.06,2.06-2.06h23.63c1.13,0,2.05.93,2.05,2.06v62.12c0,1.13-.92,2.06-2.05,2.06H3.76c-1.14,0-2.06-.92-2.06-2.06V3.76Z"/>
      <path class="cls-1" d="m9.61,27.63h11.91c2.62,0,4.75-2.13,4.75-4.75V7.88c0-.47-.38-.85-.85-.85H5.72c-.47,0-.85.38-.85.85v15c0,2.62,2.13,4.74,4.75,4.74Zm-3.05-18.89h18v14.15c0,1.68-1.36,3.04-3.04,3.04h-11.91c-1.68,0-3.04-1.36-3.05-3.04v-14.14Z"/>
      <path class="cls-1" d="m7.95,36.94h3.52c1.7.04,3.11-1.31,3.15-3.02.04-1.7-1.31-3.11-3.02-3.15-.05,0-.09,0-.14,0h-3.52c-1.7-.04-3.11,1.31-3.15,3.02-.04,1.7,1.31,3.11,3.02,3.15.05,0,.09,0,.14,0Zm0-4.47h3.52c.76-.03,1.4.57,1.43,1.34s-.57,1.4-1.34,1.43c-.03,0-.06,0-.09,0h-3.52c-.76.03-1.4-.57-1.43-1.34-.03-.76.57-1.4,1.34-1.43.03,0,.06,0,.09,0Z"/>
      <path class="cls-1" d="m23.19,30.77h-3.52c-1.7.04-3.05,1.45-3.02,3.15.04,1.65,1.37,2.98,3.02,3.02h3.52c1.7-.04,3.05-1.45,3.02-3.15-.04-1.65-1.37-2.98-3.02-3.02Zm0,4.47h-3.52c-.76-.03-1.36-.66-1.34-1.43.02-.73.61-1.31,1.34-1.34h3.52c.76.03,1.36.66,1.34,1.43-.02.73-.61,1.31-1.34,1.34Z"/>
      <path class="cls-1" d="m9.85,41.22h-3.56c-.47.02-.83.42-.82.89.02.44.37.8.82.82h3.56c.47.02.87-.35.89-.82s-.35-.87-.82-.89c-.02,0-.05,0-.07,0Z"/>
      <path class="cls-1" d="m24.84,41.22h-3.56c-.47-.02-.87.35-.89.82s.35.87.82.89c.02,0,.05,0,.07,0h3.56c.47.02.87-.35.89-.82s-.35-.87-.82-.89c-.02,0-.05,0-.07,0Z"/>
      <path class="cls-1" d="m17.35,41.22h-3.56c-.47.02-.83.42-.82.89.02.44.37.8.82.82h3.56c.47.02.87-.35.89-.82s-.35-.87-.82-.89c-.02,0-.05,0-.07,0Z"/>
      <path class="cls-1" d="m9.85,47.2h-3.56c-.47.02-.83.42-.82.89.02.44.37.8.82.82h3.56c.47.02.87-.35.89-.82s-.35-.87-.82-.89c-.02,0-.05,0-.07,0Z"/>
      <path class="cls-1" d="m24.84,47.2h-3.56c-.47-.02-.87.35-.89.82s.35.87.82.89c.02,0,.05,0,.07,0h3.56c.47.02.87-.35.89-.82s-.35-.87-.82-.89c-.02,0-.05,0-.07,0Z"/>
      <path class="cls-1" d="m17.35,47.2h-3.56c-.47.02-.83.42-.82.89.02.44.37.8.82.82h3.56c.47.02.87-.35.89-.82s-.35-.87-.82-.89c-.02,0-.05,0-.07,0Z"/>
      <path class="cls-1" d="m9.85,53.18h-3.56c-.47.02-.83.42-.82.89.02.44.37.8.82.82h3.56c.47.02.87-.35.89-.82s-.35-.87-.82-.89c-.02,0-.05,0-.07,0Z"/>
      <path class="cls-1" d="m24.84,53.18h-3.56c-.47-.02-.87.35-.89.82s.35.87.82.89c.02,0,.05,0,.07,0h3.56c.47.02.87-.35.89-.82s-.35-.87-.82-.89c-.02,0-.05,0-.07,0Z"/>
      <path class="cls-1" d="m17.35,53.18h-3.56c-.47.02-.83.42-.82.89.02.44.37.8.82.82h3.56c.47.02.87-.35.89-.82s-.35-.87-.82-.89c-.02,0-.05,0-.07,0Z"/>
      <path class="cls-1" d="m8.86,60.36c-.02-.05-.05-.1-.08-.15-.03-.05-.06-.09-.1-.13-.04-.04-.08-.07-.13-.11-.05-.03-.1-.06-.15-.08-.05-.02-.1-.04-.16-.05-.46-.09-.91.21-1,.67-.01.06-.02.11-.02.17,0,.23.09.44.25.6.04.04.08.07.13.1.05.03.1.06.15.08.05.02.1.04.16.05.05.01.11.02.17.02.06,0,.11,0,.17-.02.05-.01.11-.03.16-.05.05-.02.1-.05.15-.08.05-.03.09-.07.13-.1.16-.16.25-.38.25-.6,0-.06,0-.11-.02-.17-.01-.05-.03-.11-.05-.16Z"/>
      <path class="cls-1" d="m16.36,60.36c-.02-.05-.05-.1-.08-.15-.03-.05-.07-.09-.11-.13-.33-.33-.87-.33-1.2,0,0,0,0,0,0,0-.04.04-.08.08-.11.13-.03.05-.06.1-.08.15-.02.05-.04.1-.05.16-.01.06-.02.11-.02.17,0,.23.09.44.25.6.04.04.08.07.13.1.05.03.1.06.15.08.05.02.11.04.16.05.11.02.22.02.33,0,.05-.01.11-.03.16-.05.05-.02.1-.05.15-.08.05-.03.09-.07.13-.1.04-.04.07-.08.11-.13.03-.05.06-.1.08-.15.02-.05.04-.1.05-.16.02-.11.02-.22,0-.33-.01-.05-.03-.11-.05-.16Z"/>
      <path class="cls-1" d="m23.54,59.98s-.1-.06-.15-.08c-.05-.02-.1-.04-.16-.05-.11-.02-.22-.02-.33,0-.05.01-.11.03-.16.05-.05.02-.1.05-.15.08-.05.03-.09.07-.13.11-.04.04-.08.08-.11.13-.03.05-.06.1-.08.15-.02.05-.04.1-.05.16-.01.06-.02.11-.01.17,0,.23.09.44.25.6.04.04.08.07.13.1.05.03.1.06.15.08.05.02.1.04.16.05.06.01.11.02.17.02.06,0,.11,0,.16-.02.05-.01.11-.03.16-.05.05-.02.1-.05.15-.08.05-.03.09-.07.13-.1.04-.04.07-.08.11-.13.03-.05.06-.1.08-.15.02-.05.04-.1.05-.16.01-.05.02-.11.02-.17,0-.23-.09-.44-.25-.6-.04-.04-.08-.07-.13-.11Z"/>
    </g>
  </g>
</svg>