<?xml version="1.0" encoding="UTF-8"?>
<svg id="Ebene_2" data-name="Ebene 2" xmlns="http://www.w3.org/2000/svg" viewBox="0 0 44.47 38.42">
  <defs>
    <style>
      .cls-1 {
        fill: none;
        stroke: #fff;
        stroke-linecap: round;
        stroke-linejoin: round;
      }

      .cls-2 {
        fill: #70dc80;
        stroke-width: 0px;
      }
    </style>
  </defs>
  <g id="Capa_4" data-name="Capa 4">
    <g>
      <g>
        <path class="cls-2" d="m40.36,2.82S20.99.05,24.04,17.44c19.4,2.74,16.31-14.62,16.31-14.62Z"/>
        <path class="cls-2" d="m6.62.16s19.37-2.77,16.31,14.62C3.53,17.52,6.62.16,6.62.16Z"/>
      </g>
      <g>
        <g>
          <g>
            <path class="cls-1" d="m39.53,1.1s-20.13-2.9-16.95,15.33c20.16,2.87,16.95-15.33,16.95-15.33Z"/>
            <line class="cls-1" x1="34.27" y1="5.85" x2="22.57" y2="16.42"/>
          </g>
          <g>
            <path class="cls-1" d="m4.95,1.1s20.13-2.9,16.95,15.33C1.74,19.29,4.95,1.1,4.95,1.1Z"/>
            <line class="cls-1" x1="10.88" y1="6.47" x2="21.9" y2="16.42"/>
          </g>
          <path class="cls-1" d="m23.49,24.16c-.33-1.69-.66-4.28-.79-8.07h-.93c-.16,4.58-.62,7.41-1,9.02,0,0,1.64-.45,2.72-.95Z"/>
        </g>
        <g>
          <path class="cls-1" d="m13.1,27.74l-6.41-3.51c-1.99-1.11-4.61-.55-5.83,1.25h0c-.7,1.03-.35,2.38.79,3.01l5.4,3.02,7.15,3.98c5.48,3.05,13,3.15,18.36.72,0,0,5.05-2.55,11.41-1.78v-11.51l-4.84-2.43c-5.41-2.73-12.31,1.91-12.31,1.91-2.63,1.57-4.85,2.58-7.92,3.11-1.14.2-2.54.18-3.59.6-1.3.52-2.34,1.41-2.67,2.69-.23.9.2,2.03,1.06,2.55,1.16.71,2.91.46,4.2.31,3.19-.37,6.33-1.16,9.32-2.23.04-.01.08-.03.12-.04"/>
          <path class="cls-1" d="m15.6,26.02l-6.96-3.69c-1.76-.98-4.07-.49-5.16,1.11l-.19.37"/>
          <path class="cls-1" d="m19.62,25.4l-7.96-4.25c-1.6-.89-3.64-.57-4.82.68"/>
        </g>
      </g>
    </g>
  </g>
</svg>