<?xml version="1.0" encoding="UTF-8"?>
<svg id="Ebene_2" data-name="Ebene 2" xmlns="http://www.w3.org/2000/svg" viewBox="0 0 42.31 39.97">
  <defs>
    <style>
      .cls-1 {
        fill: none;
        stroke: #1d1d1b;
        stroke-linecap: round;
        stroke-linejoin: round;
        stroke-width: 2.5px;
      }

      .cls-2 {
        fill: #70dc80;
        stroke-width: 0px;
      }
    </style>
  </defs>
  <g id="Graphic_Elements" data-name="Graphic Elements">
    <g>
      <g>
        <path class="cls-2" d="m37.75,3.17S20.01.36,22.81,17.97c17.76,2.77,14.94-14.8,14.94-14.8Z"/>
        <path class="cls-2" d="m6.85.47s17.73-2.8,14.94,14.8C4.02,18.05,6.85.47,6.85.47Z"/>
      </g>
      <g>
        <g>
          <g>
            <path class="cls-1" d="m36.99,1.42s-18.43-2.94-15.52,15.52c18.46,2.91,15.52-15.52,15.52-15.52Z"/>
            <line class="cls-1" x1="32.17" y1="6.24" x2="21.47" y2="16.94"/>
          </g>
          <g>
            <path class="cls-1" d="m5.32,1.42s18.43-2.94,15.52,15.52C2.38,19.85,5.32,1.42,5.32,1.42Z"/>
            <line class="cls-1" x1="10.76" y1="6.86" x2="20.84" y2="16.94"/>
          </g>
          <path class="cls-1" d="m22.31,24.78c-.3-1.72-.61-4.34-.73-8.17h-.85c-.14,4.64-.57,7.5-.91,9.14,0,0,1.5-.45,2.49-.97Z"/>
        </g>
        <g>
          <path class="cls-1" d="m12.79,28.41l-5.87-3.55c-1.83-1.12-4.22-.56-5.34,1.27h0c-.64,1.04-.32,2.41.72,3.05l4.94,3.05,6.55,4.03c5.02,3.09,11.91,3.19,16.82.73,0,0,4.62-2.58,10.45-1.8v-11.65l-4.43-2.46c-4.95-2.77-11.27,1.93-11.27,1.93-2.41,1.59-4.44,2.61-7.25,3.15-1.04.2-2.33.18-3.29.61-1.19.53-2.15,1.42-2.45,2.72-.21.91.19,2.05.97,2.58,1.06.72,2.67.47,3.85.31,2.92-.38,5.8-1.17,8.53-2.26.04-.01.07-.03.11-.04"/>
          <path class="cls-1" d="m15.08,26.67l-6.37-3.74c-1.61-.99-3.73-.49-4.72,1.12l-.17.37"/>
          <path class="cls-1" d="m18.76,26.04l-7.29-4.3c-1.46-.9-3.33-.57-4.41.69"/>
        </g>
      </g>
    </g>
  </g>
</svg>