<?xml version="1.0" encoding="UTF-8"?>
<svg id="Ebene_2" data-name="Ebene 2" xmlns="http://www.w3.org/2000/svg" viewBox="0 0 51.7 60.42">
  <defs>
    <style>
      .cls-1 {
        fill: #70dc80;
      }

      .cls-1, .cls-2 {
        stroke-width: 0px;
      }

      .cls-2 {
        fill: #fff;
      }
    </style>
  </defs>
  <g id="Capa_4" data-name="Capa 4">
    <g>
      <g>
        <path class="cls-1" d="m34.54,12.86c-2.77-.31-5.5-.48-8.24-.5v8.81h8.74c-.02-2.76-.18-5.52-.5-8.32Z"/>
        <path class="cls-1" d="m35.04,22.07h-8.74v8.81c2.74-.02,5.47-.18,8.24-.5.31-2.79.48-5.55.5-8.32Z"/>
        <path class="cls-1" d="m34.44,31.3c-2.73.3-5.43.46-8.13.48v5.96c2.71-.07,5.26-.82,7.48-2.07.26-1.46.48-2.92.66-4.37Z"/>
        <path class="cls-1" d="m33.78,7.58c-2.22-1.25-4.76-2-7.48-2.07v5.96c2.7.02,5.41.18,8.13.48-.18-1.44-.4-2.9-.66-4.36Z"/>
        <path class="cls-1" d="m41.97,22.07h-6.03c-.02,2.73-.18,5.46-.48,8.21,1.46-.18,2.92-.4,4.4-.66,1.28-2.24,2.04-4.8,2.11-7.55Z"/>
        <path class="cls-1" d="m17.02,30.39c2.82.32,5.6.48,8.39.5v-8.81h-8.89c.02,2.76.18,5.53.5,8.32Z"/>
        <path class="cls-1" d="m34.79,8.21c.21,1.29.4,2.57.56,3.85,1.28.16,2.58.35,3.88.56-1.18-1.74-2.69-3.24-4.44-4.41Z"/>
        <path class="cls-1" d="m39.86,13.63c-1.48-.26-2.94-.48-4.4-.66.3,2.75.46,5.48.48,8.21h6.03c-.07-2.74-.83-5.31-2.11-7.55Z"/>
        <path class="cls-1" d="m16.1,30.28c-.3-2.75-.46-5.48-.48-8.21h-5.88c.07,2.75.84,5.33,2.13,7.57,1.42.25,2.83.46,4.23.64Z"/>
        <path class="cls-1" d="m16.1,12.97c-1.4.17-2.81.39-4.23.64-1.29,2.24-2.05,4.82-2.13,7.57h5.88c.02-2.73.18-5.46.48-8.21Z"/>
        <path class="cls-1" d="m16.75,34.93c-.21-1.25-.39-2.5-.54-3.73-1.23-.15-2.46-.33-3.71-.53,1.14,1.67,2.58,3.12,4.25,4.27Z"/>
        <path class="cls-1" d="m16.52,21.18h8.89v-8.81c-2.79.01-5.57.18-8.39.5-.31,2.79-.48,5.55-.5,8.31Z"/>
        <path class="cls-1" d="m39.23,30.63c-1.3.22-2.59.41-3.88.56-.15,1.28-.34,2.56-.56,3.85,1.75-1.17,3.26-2.67,4.44-4.41Z"/>
        <path class="cls-1" d="m16.75,8.32c-1.67,1.14-3.11,2.59-4.25,4.27,1.24-.21,2.48-.39,3.71-.54.15-1.24.33-2.48.54-3.73Z"/>
        <path class="cls-1" d="m17.76,35.57c2.26,1.31,4.86,2.09,7.64,2.17v-5.95c-2.75-.01-5.51-.17-8.28-.48.17,1.41.39,2.84.64,4.27Z"/>
        <path class="cls-1" d="m17.12,11.95c2.78-.31,5.53-.47,8.28-.48v-5.96c-2.78.08-5.38.85-7.64,2.17-.25,1.43-.47,2.86-.64,4.27Z"/>
      </g>
      <polygon class="cls-2" points="36.37 6.78 37.06 4.07 39.76 3.39 37.06 2.7 36.37 0 35.69 2.7 32.98 3.39 35.69 4.07 36.37 6.78"/>
      <polygon class="cls-2" points="39.91 7.98 40.38 9.85 40.85 7.98 42.72 7.51 40.85 7.04 40.38 5.17 39.91 7.04 38.04 7.51 39.91 7.98"/>
      <path class="cls-2" d="m47.41,19.11c-1.29.73-.86,3.08-.86,3.08-1.11.2-1.48,1.43-1.87,3.23-.96,4.49.46,9.85.2,11.74.58-.67,1.21-1.41,1.84-2.21.2-.26.41-.53.59-.8.05-.07.09-.13.13-.2.04-.07.05-.09.09-.19.01-.08.04-.27.05-.42.04-.67.02-1.38,0-2.09-.02-.72-.04-1.43-.06-2.13-.01-.71-.03-1.4-.04-2.07,0-.67,0-1.32,0-1.94.01-.62.05-1.22.11-1.77.09-.55.18-1.05.34-1.48.16-.42.34-.78.55-1.04.2-.26.43-.41.59-.48.16-.06.26-.06.26-.06,0-1.36-1.17-1.6-1.92-1.17Z"/>
      <path class="cls-2" d="m51.07,21.44c-.2-1.51-1.74-1.17-1.74-1.17,0,0-.09.01-.23.11-.13.09-.3.27-.44.53-.29.53-.44,1.41-.46,2.45,0,.53,0,1.09.05,1.7.03.62.07,1.26.1,1.94.06,1.34.11,2.78.1,4.22-.02.72-.03,1.44-.13,2.18-.03.19-.06.36-.15.62-.03.06-.1.19-.15.28-.05.08-.11.15-.16.23-.22.29-.44.55-.66.81-.91,1.01-1.79,1.91-2.57,2.65-.41.39-.79.74-1.12,1.05-2.77,2.69-8.93,7.4-9.26,6.69-1.06-2.27,7.31-5.65,9.16-9.31,1.68-3.33-3.23-1.9-4-1.39-2.53,1.66-5.85,3.37-8.94,5.77-7.1,5.54-1.89,19.6-1.89,19.6.45-3.78,17.58-11.45,22.57-21.19,1.16-2.27.21-15.69-.07-17.8Z"/>
      <path class="cls-2" d="m3.22,20.81c.2.26.39.62.55,1.04.17.43.25.93.34,1.48.07.55.1,1.15.11,1.77,0,.62,0,1.27,0,1.94-.01.67-.03,1.37-.04,2.07-.02.7-.04,1.42-.06,2.13-.02.71-.04,1.43,0,2.09,0,.16.04.34.05.42.04.1.05.12.09.19.04.07.08.13.13.2.18.28.39.54.6.8.63.8,1.26,1.54,1.84,2.21-.26-1.89,1.16-7.25.2-11.74-.39-1.8-.76-3.03-1.87-3.23,0,0,.43-2.34-.86-3.08-.76-.43-1.93-.19-1.93,1.17,0,0,.09,0,.26.06.16.06.39.21.59.48Z"/>
      <path class="cls-2" d="m21.25,40.82c-3.09-2.41-6.41-4.11-8.94-5.77-.77-.51-5.68-1.95-4,1.39,1.84,3.66,10.22,7.04,9.16,9.31-.33.71-6.5-4-9.27-6.69-.33-.31-.71-.66-1.12-1.05-.78-.75-1.67-1.64-2.57-2.65-.22-.26-.45-.52-.66-.81-.05-.08-.11-.15-.16-.23-.06-.08-.12-.21-.15-.28-.09-.26-.11-.42-.15-.62-.1-.74-.11-1.46-.13-2.18,0-1.44.04-2.88.1-4.22.04-.67.07-1.32.1-1.94.04-.61.06-1.18.05-1.7-.03-1.05-.17-1.92-.46-2.45-.14-.26-.31-.44-.44-.53-.13-.1-.23-.11-.23-.11,0,0-1.53-.35-1.74,1.17-.28,2.11-1.23,15.53-.07,17.8,4.99,9.74,22.12,17.41,22.58,21.19,0,0,5.21-14.06-1.89-19.6Z"/>
    </g>
  </g>
</svg>