<?xml version="1.0" encoding="UTF-8"?>
<svg id="Ebene_2" data-name="Ebene 2" xmlns="http://www.w3.org/2000/svg" viewBox="0 0 166.86 164.16">
  <defs>
    <style>
      .cls-1 {
        opacity: .83;
      }

      .cls-2 {
        fill: #70dc80;
        stroke-width: 0px;
      }
    </style>
  </defs>
  <g id="Capa_4" data-name="Capa 4">
    <g class="cls-1">
      <path class="cls-2" d="m166.86,97.03c0-13.19-3.75-26.03-10.84-37.13l-17.9,11.43c4.91,7.68,7.5,16.57,7.5,25.7s-2.69,18.26-7.6,25.87l-.33-15.3c-8.62,16.34-25.44,35.11-39.91,47.9,19.3-.26,44.38,2.35,61.73,8.66l-14.52-16.72c13.95-13.05,21.87-31.11,21.87-50.41Z"/>
      <path class="cls-2" d="m94.59,40.33s.07,0,.11,0l-12.65,8.43c18.41-1.5,43.28,2.63,61.83,7.98-10.57-16.15-21.83-38.71-25.82-56.74l-6.31,21.24c-5.58-1.43-11.33-2.16-17.15-2.16-23.69,0-45.47,11.94-58.24,31.95l17.9,11.44c8.86-13.86,23.94-22.14,40.34-22.14Z"/>
      <path class="cls-2" d="m46.35,113.88l13.06,7.95c-9.14-16.05-15.92-40.33-18.92-59.4C30.34,78.83,14.65,98.57,0,109.81l21.91-3.26c6,32.5,34.23,56.37,67.88,56.37v-21.25c-19.21,0-35.85-11.25-43.44-27.81Z"/>
    </g>
  </g>
</svg>