<?xml version="1.0" encoding="UTF-8"?>
<svg id="Ebene_2" data-name="Ebene 2" xmlns="http://www.w3.org/2000/svg" viewBox="0 0 38.51 46">
  <defs>
    <style>
      .cls-1 {
        fill: none;
        stroke: #70dc80;
        stroke-linecap: round;
        stroke-linejoin: round;
        stroke-width: 2px;
      }
    </style>
  </defs>
  <g id="Capa_4" data-name="Capa 4">
    <g>
      <g>
        <path class="cls-1" d="m34.35,13.66c-1.11-7.17-7.31-12.66-14.8-12.66-6.2,0-11.52,3.77-13.8,9.15"/>
        <path class="cls-1" d="m4.35,18.69c0,4.49,2.21,5.79,5.33,8.54h0s2.58,1.98,3.99,7.12h11.78c1.41-5.15,3.99-7.12,3.99-7.12h0c1.89-1.66,3.36-3.79,4.23-6.2"/>
        <rect class="cls-1" x="13.62" y="34.35" width="11.87" height="7.34"/>
        <path class="cls-1" d="m16.24,41.68c0,1.83,1.49,3.32,3.32,3.32s3.32-1.49,3.32-3.32h-6.63Z"/>
      </g>
      <polyline class="cls-1" points="37.51 8.88 34.96 14.15 29.27 12.4"/>
      <polyline class="cls-1" points="1 22.64 3.84 17.87 8.61 20.71"/>
    </g>
  </g>
</svg>