<?xml version="1.0" encoding="UTF-8" standalone="no" ?>
<!DOCTYPE svg PUBLIC "-//W3C//DTD SVG 1.1//EN" "http://www.w3.org/Graphics/SVG/1.1/DTD/svg11.dtd">
<svg xmlns="http://www.w3.org/2000/svg" xmlns:xlink="http://www.w3.org/1999/xlink" version="1.1" width="640" height="480" viewBox="0 0 640 480" xml:space="preserve">
<desc>Created with Fabric.js 3.6.6</desc>
<defs>
</defs>
<g transform="matrix(1 0 0 1 233.59 234.35)"  >
<path style="stroke: none; stroke-width: 0; stroke-dasharray: none; stroke-linecap: butt; stroke-dashoffset: 0; stroke-linejoin: miter; stroke-miterlimit: 4; fill: rgb(255,255,255); fill-rule: nonzero; opacity: 1;"  transform=" translate(-60.09, -43.34)" d="m 61.72 33.29 v 22.91 h -3.22 v -22.91 h -6.15 v -2.81 h 15.49 v 2.81 h -6.13 h 0.01 Z" stroke-linecap="round" />
</g>
<g transform="matrix(1 0 0 1 250.38 234.35)"  >
<path style="stroke: none; stroke-width: 0; stroke-dasharray: none; stroke-linecap: butt; stroke-dashoffset: 0; stroke-linejoin: miter; stroke-miterlimit: 4; fill: rgb(255,255,255); fill-rule: nonzero; opacity: 1;"  transform=" translate(-76.88, -43.35)" d="m 70.1 30.49 h 3.23 v 9.38 c 0.55 -0.6 1.68 -0.89 3.4 -0.89 c 2.06 0 3.72 0.63 4.99 1.89 c 1.26 1.26 1.91 2.81 1.93 4.63 v 10.7 h -3.22 v -10.56 c 0 -1.11 -0.38 -2.03 -1.13 -2.76 s -1.61 -1.1 -2.57 -1.1 s -1.79 0.35 -2.52 1.04 c -0.42 0.42 -0.71 0.82 -0.88 1.2 v 12.19 h -3.23 v -25.71 h 0 Z" stroke-linecap="round" />
</g>
<g transform="matrix(1 0 0 1 268.69 238.58)"  >
<path style="stroke: none; stroke-width: 0; stroke-dasharray: none; stroke-linecap: butt; stroke-dashoffset: 0; stroke-linejoin: miter; stroke-miterlimit: 4; fill: rgb(255,255,255); fill-rule: nonzero; opacity: 1;"  transform=" translate(-95.18, -47.58)" d="m 89.38 47.54 v 0.05 c 0 1.74 0.59 3.2 1.77 4.38 s 2.57 1.77 4.18 1.77 s 3 -0.6 4.2 -1.8 c 0.17 -0.17 0.49 -0.54 0.96 -1.13 l 3.04 1.07 c -0.45 0.76 -0.98 1.44 -1.57 2.02 c -1.81 1.82 -4.02 2.73 -6.63 2.73 s -4.77 -0.9 -6.57 -2.69 c -1.79 -1.79 -2.69 -3.91 -2.69 -6.35 s 0.9 -4.59 2.69 -6.38 s 3.98 -2.68 6.57 -2.68 s 4.82 0.91 6.63 2.72 c 1.56 1.57 2.34 3.67 2.34 6.29 c 0 0 -14.92 0 -14.92 0 Z m 0.57 -2.82 h 10.7 c -0.76 -2.22 -2.54 -3.32 -5.32 -3.32 s -4.59 1.11 -5.38 3.32 Z" stroke-linecap="round" />
</g>
<g transform="matrix(1 0 0 1 288.03 238.58)"  >
<path style="stroke: none; stroke-width: 0; stroke-dasharray: none; stroke-linecap: butt; stroke-dashoffset: 0; stroke-linejoin: miter; stroke-miterlimit: 4; fill: rgb(255,255,255); fill-rule: nonzero; opacity: 1;"  transform=" translate(-114.53, -47.58)" d="m 120.13 50.98 l 3.07 1.13 c -0.61 0.82 -1.09 1.42 -1.45 1.79 c -1.81 1.82 -4.02 2.73 -6.63 2.73 s -4.77 -0.9 -6.57 -2.69 c -1.79 -1.79 -2.69 -3.92 -2.69 -6.37 s 0.9 -4.57 2.69 -6.36 s 3.98 -2.68 6.57 -2.68 s 4.79 0.88 6.56 2.64 c 0.4 0.41 0.91 1.02 1.52 1.84 l -3.07 1.14 c -0.43 -0.54 -0.72 -0.89 -0.88 -1.05 c -1.16 -1.14 -2.53 -1.72 -4.13 -1.72 s -2.98 0.59 -4.16 1.78 c -1.18 1.19 -1.77 2.65 -1.77 4.4 s 0.59 3.2 1.77 4.39 s 2.57 1.78 4.16 1.78 s 3 -0.6 4.2 -1.8 c 0.11 -0.11 0.38 -0.42 0.8 -0.95 h 0 Z" stroke-linecap="round" />
</g>
<g transform="matrix(1 0 0 1 301.35 236.39)"  >
<path style="stroke: none; stroke-width: 0; stroke-dasharray: none; stroke-linecap: butt; stroke-dashoffset: 0; stroke-linejoin: miter; stroke-miterlimit: 4; fill: rgb(255,255,255); fill-rule: nonzero; opacity: 1;"  transform=" translate(-127.85, -45.39)" d="m 129.49 35.22 c 0.43 0.42 0.65 0.9 0.65 1.42 s -0.22 1.03 -0.65 1.46 c -0.44 0.42 -0.98 0.63 -1.64 0.63 s -1.23 -0.21 -1.66 -0.63 c -0.43 -0.42 -0.64 -0.91 -0.64 -1.46 s 0.21 -1 0.64 -1.42 s 0.98 -0.63 1.66 -0.63 s 1.2 0.21 1.64 0.63 Z m -0.04 4.65 v 16.33 h -3.22 v -16.33 h 3.22 Z" stroke-linecap="round" />
</g>
<g transform="matrix(1 0 0 1 310.37 238.87)"  >
<path style="stroke: none; stroke-width: 0; stroke-dasharray: none; stroke-linecap: butt; stroke-dashoffset: 0; stroke-linejoin: miter; stroke-miterlimit: 4; fill: rgb(255,255,255); fill-rule: nonzero; opacity: 1;"  transform=" translate(-136.87, -47.87)" d="m 140.81 42.3 c -1.48 0.23 -2.62 0.81 -3.43 1.76 c -0.81 0.95 -1.22 2.14 -1.22 3.57 v 8.58 h -3.23 v -16.33 h 3.23 v 2.32 c 0.48 -1.27 1.5 -2.16 3.07 -2.66 l 1.57 2.77 h 0 Z" stroke-linecap="round" />
</g>
<g transform="matrix(1 0 0 1 324.83 238.58)"  >
<path style="stroke: none; stroke-width: 0; stroke-dasharray: none; stroke-linecap: butt; stroke-dashoffset: 0; stroke-linejoin: miter; stroke-miterlimit: 4; fill: rgb(255,255,255); fill-rule: nonzero; opacity: 1;"  transform=" translate(-151.33, -47.58)" d="m 156.93 50.98 l 3.07 1.13 c -0.61 0.82 -1.09 1.42 -1.45 1.79 c -1.81 1.82 -4.02 2.73 -6.63 2.73 s -4.77 -0.9 -6.57 -2.69 c -1.79 -1.79 -2.69 -3.92 -2.69 -6.37 s 0.9 -4.57 2.69 -6.36 c 1.79 -1.79 3.98 -2.68 6.57 -2.68 s 4.79 0.88 6.56 2.64 c 0.4 0.41 0.91 1.02 1.52 1.84 l -3.07 1.14 c -0.43 -0.54 -0.72 -0.89 -0.88 -1.05 c -1.16 -1.14 -2.53 -1.72 -4.13 -1.72 s -2.98 0.59 -4.16 1.78 c -1.18 1.19 -1.77 2.65 -1.77 4.4 s 0.59 3.2 1.77 4.39 c 1.18 1.19 2.57 1.78 4.16 1.78 s 3 -0.6 4.2 -1.8 c 0.11 -0.11 0.38 -0.42 0.8 -0.95 h 0.01 Z" stroke-linecap="round" />
</g>
<g transform="matrix(1 0 0 1 342.97 239.13)"  >
<path style="stroke: none; stroke-width: 0; stroke-dasharray: none; stroke-linecap: butt; stroke-dashoffset: 0; stroke-linejoin: miter; stroke-miterlimit: 4; fill: rgb(255,255,255); fill-rule: nonzero; opacity: 1;"  transform=" translate(-169.47, -48.14)" d="m 169.56 56.42 c -2.17 0 -3.88 -0.63 -5.14 -1.89 s -1.9 -2.81 -1.94 -4.65 v -10.02 h 3.23 v 9.9 c 0 1.1 0.39 2.03 1.16 2.79 c 0.73 0.73 1.61 1.09 2.66 1.09 c 0.95 0 1.8 -0.37 2.56 -1.12 c 0.75 -0.74 1.13 -1.66 1.13 -2.76 v -9.9 h 3.23 v 10.02 c -0.04 1.83 -0.69 3.4 -1.97 4.68 c -1.24 1.24 -2.88 1.86 -4.93 1.86 h 0 Z" stroke-linecap="round" />
</g>
<g transform="matrix(1 0 0 1 355.1 234.34)"  >
<path style="stroke: none; stroke-width: 0; stroke-dasharray: none; stroke-linecap: butt; stroke-dashoffset: 0; stroke-linejoin: miter; stroke-miterlimit: 4; fill: rgb(255,255,255); fill-rule: nonzero; opacity: 1;"  transform=" translate(-181.6, -43.34)" d="m 183.21 30.49 v 25.71 h -3.23 v -25.71 s 3.23 0 3.23 0 Z" stroke-linecap="round" />
</g>
<g transform="matrix(1 0 0 1 369.43 234.34)"  >
<path style="stroke: none; stroke-width: 0; stroke-dasharray: none; stroke-linecap: butt; stroke-dashoffset: 0; stroke-linejoin: miter; stroke-miterlimit: 4; fill: rgb(112,220,128); fill-rule: nonzero; opacity: 1;"  transform=" translate(-195.93, -43.34)" d="m 197.4 30.49 l 9.31 25.71 h -3.36 l -3.88 -10.69 h -6.99 l -3.95 10.69 h -3.38 l 9.43 -25.71 h 2.82 Z m 1.05 12.24 l -2.47 -6.83 l -2.48 6.83 s 4.95 0 4.95 0 Z" stroke-linecap="round" />
</g>
<g transform="matrix(1 0 0 1 389.97 234.35)"  >
<path style="stroke: none; stroke-width: 0; stroke-dasharray: none; stroke-linecap: butt; stroke-dashoffset: 0; stroke-linejoin: miter; stroke-miterlimit: 4; fill: rgb(112,220,128); fill-rule: nonzero; opacity: 1;"  transform=" translate(-216.47, -43.36)" d="m 215.02 47.79 h -3.02 v 8.42 h -3.23 v -25.71 h 7.36 c 2.14 0.29 3.94 1.16 5.38 2.61 c 1.68 1.68 2.52 3.69 2.52 6.02 s -0.86 4.38 -2.59 6.11 c -1.14 1.16 -2.16 1.84 -3.04 2.05 l 5.77 8.92 h -3.73 l -5.41 -8.42 h -0.01 Z m -3.02 -14.47 v 11.65 h 3.18 c 1.5 0 2.81 -0.56 3.93 -1.67 c 1.12 -1.11 1.68 -2.5 1.68 -4.17 s -0.56 -3.04 -1.68 -4.15 s -2.43 -1.66 -3.93 -1.66 c 0 0 -3.18 0 -3.18 0 Z" stroke-linecap="round" />
</g>
<g transform="matrix(1 0 0 1 407.18 234.35)"  >
<path style="stroke: none; stroke-width: 0; stroke-dasharray: none; stroke-linecap: butt; stroke-dashoffset: 0; stroke-linejoin: miter; stroke-miterlimit: 4; fill: rgb(112,220,128); fill-rule: nonzero; opacity: 1;"  transform=" translate(-233.68, -43.34)" d="m 235.3 33.29 v 22.91 h -3.22 v -22.91 h -6.15 v -2.81 h 15.49 v 2.81 h -6.13 h 0 Z" stroke-linecap="round" />
</g>
</svg>