<?xml version="1.0" encoding="UTF-8"?>
<svg id="Ebene_2" data-name="Ebene 2" xmlns="http://www.w3.org/2000/svg" viewBox="0 0 189.08 60.21">
  <defs>
    <style>
      .cls-1 {
        fill: #70dc80;
      }

      .cls-1, .cls-2 {
        stroke-width: 0px;
      }

      .cls-2 {
        fill: #222221;
      }
    </style>
  </defs>
  <g id="Graphic_Elements" data-name="Graphic Elements">
    <g>
      <path class="cls-2" d="m9.37,33.29v22.91h-3.22v-22.91H0v-2.81h15.49v2.81h-6.13.01Z"/>
      <path class="cls-2" d="m17.75,30.49h3.23v9.38c.55-.6,1.68-.89,3.4-.89,2.06,0,3.72.63,4.99,1.89,1.26,1.26,1.91,2.81,1.93,4.63v10.7h-3.22v-10.56c0-1.11-.38-2.03-1.13-2.76s-1.61-1.1-2.57-1.1-1.79.35-2.52,1.04c-.42.42-.71.82-.88,1.2v12.19h-3.23v-25.71h0Z"/>
      <path class="cls-2" d="m37.03,47.54v.05c0,1.74.59,3.2,1.77,4.38s2.57,1.77,4.18,1.77,3-.6,4.2-1.8c.17-.17.49-.54.96-1.13l3.04,1.07c-.45.76-.98,1.44-1.57,2.02-1.81,1.82-4.02,2.73-6.63,2.73s-4.77-.9-6.57-2.69c-1.79-1.79-2.69-3.91-2.69-6.35s.9-4.59,2.69-6.38,3.98-2.68,6.57-2.68,4.82.91,6.63,2.72c1.56,1.57,2.34,3.67,2.34,6.29,0,0-14.92,0-14.92,0Zm.57-2.82h10.7c-.76-2.22-2.54-3.32-5.32-3.32s-4.59,1.11-5.38,3.32Z"/>
      <path class="cls-2" d="m67.78,50.98l3.07,1.13c-.61.82-1.09,1.42-1.45,1.79-1.81,1.82-4.02,2.73-6.63,2.73s-4.77-.9-6.57-2.69c-1.79-1.79-2.69-3.92-2.69-6.37s.9-4.57,2.69-6.36,3.98-2.68,6.57-2.68,4.79.88,6.56,2.64c.4.41.91,1.02,1.52,1.84l-3.07,1.14c-.43-.54-.72-.89-.88-1.05-1.16-1.14-2.53-1.72-4.13-1.72s-2.98.59-4.16,1.78c-1.18,1.19-1.77,2.65-1.77,4.4s.59,3.2,1.77,4.39,2.57,1.78,4.16,1.78,3-.6,4.2-1.8c.11-.11.38-.42.8-.95h0Z"/>
      <path class="cls-2" d="m77.14,35.22c.43.42.65.9.65,1.42s-.22,1.03-.65,1.46c-.44.42-.98.63-1.64.63s-1.23-.21-1.66-.63c-.43-.42-.64-.91-.64-1.46s.21-1,.64-1.42.98-.63,1.66-.63,1.2.21,1.64.63Zm-.04,4.65v16.33h-3.22v-16.33h3.22Z"/>
      <path class="cls-2" d="m88.46,42.3c-1.48.23-2.62.81-3.43,1.76-.81.95-1.22,2.14-1.22,3.57v8.58h-3.23v-16.33h3.23v2.32c.48-1.27,1.5-2.16,3.07-2.66l1.57,2.77h0Z"/>
      <path class="cls-2" d="m104.58,50.98l3.07,1.13c-.61.82-1.09,1.42-1.45,1.79-1.81,1.82-4.02,2.73-6.63,2.73s-4.77-.9-6.57-2.69c-1.79-1.79-2.69-3.92-2.69-6.37s.9-4.57,2.69-6.36c1.79-1.79,3.98-2.68,6.57-2.68s4.79.88,6.56,2.64c.4.41.91,1.02,1.52,1.84l-3.07,1.14c-.43-.54-.72-.89-.88-1.05-1.16-1.14-2.53-1.72-4.13-1.72s-2.98.59-4.16,1.78c-1.18,1.19-1.77,2.65-1.77,4.4s.59,3.2,1.77,4.39c1.18,1.19,2.57,1.78,4.16,1.78s3-.6,4.2-1.8c.11-.11.38-.42.8-.95h.01Z"/>
      <path class="cls-2" d="m117.21,56.42c-2.17,0-3.88-.63-5.14-1.89s-1.9-2.81-1.94-4.65v-10.02h3.23v9.9c0,1.1.39,2.03,1.16,2.79.73.73,1.61,1.09,2.66,1.09.95,0,1.8-.37,2.56-1.12.75-.74,1.13-1.66,1.13-2.76v-9.9h3.23v10.02c-.04,1.83-.69,3.4-1.97,4.68-1.24,1.24-2.88,1.86-4.93,1.86h0Z"/>
      <path class="cls-2" d="m130.86,30.49v25.71h-3.23v-25.71s3.23,0,3.23,0Z"/>
      <path class="cls-1" d="m145.05,30.49l9.31,25.71h-3.36l-3.88-10.69h-6.99l-3.95,10.69h-3.38l9.43-25.71h2.82Zm1.05,12.24l-2.47-6.83-2.48,6.83s4.95,0,4.95,0Z"/>
      <path class="cls-1" d="m162.67,47.79h-3.02v8.42h-3.23v-25.71h7.36c2.14.29,3.94,1.16,5.38,2.61,1.68,1.68,2.52,3.69,2.52,6.02s-.86,4.38-2.59,6.11c-1.14,1.16-2.16,1.84-3.04,2.05l5.77,8.92h-3.73l-5.41-8.42h-.01Zm-3.02-14.47v11.65h3.18c1.5,0,2.81-.56,3.93-1.67,1.12-1.11,1.68-2.5,1.68-4.17s-.56-3.04-1.68-4.15-2.43-1.66-3.93-1.66c0,0-3.18,0-3.18,0Z"/>
      <path class="cls-1" d="m182.95,33.29v22.91h-3.22v-22.91h-6.15v-2.81h15.49v2.81h-6.13,0Z"/>
    </g>
  </g>
</svg>