<svg version="1.1" id="Layer_1" xmlns="http://www.w3.org/2000/svg" xmlns:xlink="http://www.w3.org/1999/xlink" x="0px" y="0px"
	 width="100%" viewBox="0 0 1080 366" enable-background="new 0 0 1080 366" xml:space="preserve">
<path fill="#FFFFFF" opacity="1.000000" stroke="none" 
	d="
M767.000000,367.000000 
	C511.333344,367.000000 256.166656,367.000000 1.000000,367.000000 
	C1.000000,245.000000 1.000000,123.000000 1.000000,1.000000 
	C361.000000,1.000000 721.000000,1.000000 1081.000000,1.000000 
	C1081.000000,123.000000 1081.000000,245.000000 1081.000000,367.000000 
	C976.500000,367.000000 872.000000,367.000000 767.000000,367.000000 
M260.276520,253.780151 
	C260.854248,251.959717 261.867584,250.154129 261.930206,248.316132 
	C262.139954,242.159958 262.295380,235.976395 261.954407,229.832016 
	C261.084290,214.151917 267.753296,201.912170 278.774078,191.513504 
	C285.896790,184.792892 291.302277,176.888504 294.991699,167.816376 
	C296.227783,164.776871 297.493103,161.482254 293.438934,159.714661 
	C289.356659,157.934814 287.916473,160.970612 286.639374,164.128540 
	C283.151947,172.752106 277.557709,179.808136 271.030731,186.429382 
	C266.431061,191.095520 262.707184,196.738922 259.197357,202.326111 
	C256.774231,206.183426 255.384552,210.689911 253.597290,214.759995 
	C239.411407,214.759995 225.455078,214.759995 213.267334,214.759995 
	C207.545822,205.540375 202.931030,196.899628 197.113373,189.163437 
	C193.387695,184.209091 187.821564,180.659714 183.200653,176.351624 
	C178.810135,172.258331 175.192245,167.653625 174.362762,160.375305 
	C177.985992,162.492035 180.927521,164.199814 183.858276,165.925842 
	C186.545364,167.508347 189.164352,167.481018 190.771912,164.653595 
	C192.362473,161.856049 191.075577,159.564911 188.414536,157.987122 
	C182.409546,154.426636 176.380295,150.905212 170.427994,147.258392 
	C167.057358,145.193298 164.490875,145.722885 162.479218,149.128906 
	C158.928528,155.140717 155.359344,161.141617 151.786621,167.140381 
	C150.132401,169.917877 149.790924,172.620956 152.993790,174.402908 
	C155.943100,176.043823 158.014832,174.477615 159.562241,171.880173 
	C161.204453,169.123596 162.916870,166.408859 164.016891,164.621231 
	C168.260620,170.743057 172.139969,177.006378 176.723740,182.702866 
	C179.499084,186.151917 183.434448,188.648651 186.729355,191.701965 
	C197.032074,201.249329 203.587646,212.541382 203.173889,227.111862 
	C203.013199,232.770889 203.147827,238.438278 203.147644,244.101868 
	C203.147308,254.476501 203.251541,254.580704 213.721329,254.910812 
	C214.040726,254.920868 214.355133,255.088516 214.700882,255.191315 
	C215.346832,256.515442 215.931580,257.893829 216.664505,259.188354 
	C222.978271,270.339905 239.071777,272.272156 246.456497,261.891205 
	C250.078796,256.799225 253.553238,254.052750 260.276520,253.780151 
M963.527405,212.975357 
	C968.889038,207.071594 970.003723,200.120575 969.055176,192.429245 
	C967.661133,181.125427 957.966370,172.073212 946.646729,172.011810 
	C936.820251,171.958496 926.993225,172.000656 917.166443,172.000626 
	C914.234497,172.000610 911.302612,172.000610 908.273682,172.000610 
	C908.273682,200.626694 908.273682,228.529800 908.273682,256.619751 
	C912.584045,256.619751 916.615051,256.619751 921.123901,256.619751 
	C921.123901,244.663345 921.123901,233.079300 921.123901,220.999573 
	C926.383179,220.999573 931.182983,221.186157 935.958801,220.928467 
	C938.754822,220.777618 939.973389,221.925156 941.180542,224.278824 
	C946.379517,234.414948 951.738464,244.472336 957.264038,254.433655 
	C957.949951,255.670258 959.922607,256.738525 961.397583,256.883667 
	C964.977539,257.235901 968.615540,256.998230 973.129272,256.998230 
	C966.132812,244.147171 959.495789,231.956436 953.248108,220.480774 
	C956.931763,217.842224 959.969604,215.666245 963.527405,212.975357 
M1039.974487,251.581009 
	C1047.902954,246.619614 1051.851685,239.368790 1051.970337,230.109818 
	C1052.100586,219.947830 1051.583496,209.761444 1052.105835,199.624710 
	C1052.752319,187.078918 1042.001587,174.245926 1029.383301,173.147202 
	C1017.505554,172.112946 1005.518738,172.319046 993.578735,172.027191 
	C992.484802,172.000443 991.382385,172.320526 990.317749,172.474655 
	C990.317749,200.699524 990.317749,228.609985 990.317749,256.942261 
	C1001.920044,256.942261 1013.241333,257.429657 1024.487305,256.721191 
	C1029.538940,256.402954 1034.439941,253.693573 1039.974487,251.581009 
M830.128845,223.736420 
	C826.045105,234.600021 821.961365,245.463623 817.841064,256.424561 
	C829.894470,258.330109 830.119324,258.195221 834.256104,247.509872 
	C835.028931,245.513504 836.231262,243.617111 836.628784,241.557510 
	C837.200623,238.595047 838.814819,237.925613 841.539185,237.957382 
	C851.026367,238.067993 860.518005,238.119217 870.002747,237.931213 
	C873.085876,237.870087 874.282166,239.038345 875.153992,241.877487 
	C876.727539,247.001724 878.829041,251.963837 880.558838,256.589539 
	C885.277832,256.589539 889.483215,256.589539 893.879578,256.589539 
	C883.414185,229.309555 873.056458,202.482941 862.872864,175.590408 
	C861.223450,171.234482 857.907471,172.156891 854.698059,171.970947 
	C851.782959,171.802078 850.064026,172.388779 848.848938,175.658752 
	C842.948914,191.536057 836.642456,207.262314 830.128845,223.736420 
M805.429443,195.999374 
	C807.183899,195.999374 808.938416,195.999374 811.333984,195.999374 
	C808.424377,185.198029 802.758850,177.873688 793.193726,173.606689 
	C776.823181,166.303833 752.733643,173.511032 750.149292,195.811890 
	C748.894714,206.638672 748.763245,217.685913 749.214783,228.588135 
	C749.511536,235.751587 751.500793,242.976532 756.951538,248.418274 
	C766.395081,257.846436 777.748962,260.080780 790.210999,256.285828 
	C801.489319,252.851288 808.356995,245.116226 810.838745,233.000656 
	C808.901733,233.000656 807.402405,233.145584 805.940247,232.974030 
	C801.151733,232.412201 798.179504,233.584152 795.434509,238.451721 
	C791.496704,245.434631 783.921387,247.224655 776.260132,245.820709 
	C769.179138,244.523071 763.823608,239.968628 763.167969,232.720184 
	C762.155334,221.524704 761.762024,210.180634 762.350403,198.964874 
	C762.754822,191.254990 767.512268,185.226303 775.354614,183.161728 
	C783.073792,181.129578 792.864319,184.822906 795.816040,190.989960 
	C797.796021,195.126831 800.220886,196.749863 805.429443,195.999374 
M285.290863,136.059036 
	C288.463470,137.042130 291.650452,137.981674 294.804718,139.020462 
	C298.021790,140.079926 300.283539,139.148270 301.743164,136.069351 
	C304.872711,129.467758 308.047974,122.887787 311.214539,116.303772 
	C312.551941,113.522964 313.184601,110.668846 309.850403,109.020874 
	C306.661957,107.444923 304.526215,109.154022 303.117615,112.131874 
	C301.379425,115.806328 299.520020,119.423447 297.423492,123.648827 
	C296.741882,121.857063 296.355865,120.775635 295.922699,119.713417 
	C285.052612,93.057564 265.424957,77.532112 236.625153,75.742264 
	C209.549179,74.059547 188.799759,85.977211 174.493118,109.007980 
	C173.269989,110.976944 172.253601,113.092690 171.320465,115.218925 
	C170.068039,118.072739 169.836105,120.817558 173.336197,122.316437 
	C176.583664,123.707123 178.279755,121.727821 179.595215,119.160400 
	C179.896912,118.571579 180.075287,117.920509 180.363434,117.323685 
	C190.431625,96.470078 212.635986,83.274963 235.457413,84.576317 
	C259.319855,85.937019 279.930878,101.293770 287.443573,123.347717 
	C287.828796,124.478622 287.943817,125.701561 288.297241,127.433487 
	C283.534790,125.990135 279.483459,124.314209 275.276093,123.689880 
	C273.378571,123.408302 270.191101,124.667603 269.318573,126.207718 
	C267.781372,128.920944 269.545685,131.207825 272.628571,132.152069 
	C276.597534,133.367661 280.547424,134.645569 285.290863,136.059036 
M470.373596,241.988068 
	C463.176117,248.300003 455.537384,249.631088 448.422638,245.813171 
	C441.581879,242.142242 437.588715,235.091034 438.668243,228.068024 
	C454.314178,228.068024 470.027740,228.068024 485.722839,228.068024 
	C486.075958,212.838593 476.039764,201.116928 461.335052,199.164001 
	C445.608002,197.075287 431.301056,206.651489 427.754639,221.640625 
	C424.356140,236.004669 432.702148,251.063995 446.739380,255.896194 
	C460.875214,260.762329 477.049133,254.612579 483.202606,241.443161 
	C478.877808,241.836273 475.224182,235.391464 470.373596,241.988068 
M414.083130,207.439240 
	C406.310242,198.934235 396.543518,199.660507 386.109924,201.934525 
	C386.109924,192.081421 386.109924,182.664429 386.109924,173.327881 
	C382.450714,173.327881 379.226227,173.327881 375.804596,173.327881 
	C375.804596,187.318405 375.804626,200.971786 375.804626,214.625168 
	C375.804626,228.355499 375.804596,242.085831 375.804596,255.813110 
	C379.633240,255.813110 382.758148,255.813110 386.196899,255.813110 
	C386.196899,243.971146 385.998901,232.316193 386.345886,220.677475 
	C386.425629,218.002716 387.791992,214.855545 389.596741,212.855728 
	C392.763489,209.346634 397.193481,208.822937 401.542938,210.775391 
	C406.409332,212.959885 408.802460,216.918427 408.803772,222.277283 
	C408.806488,233.416550 408.804596,244.555801 408.804596,255.822418 
	C412.470245,255.822418 415.757904,255.822418 419.088867,255.822418 
	C419.088867,243.023529 419.396271,230.397339 418.882416,217.804657 
	C418.746338,214.469833 416.082214,211.238159 414.083130,207.439240 
M626.764954,213.180450 
	C634.961670,206.982483 644.911865,206.681442 651.210876,213.400208 
	C654.492981,216.900970 657.139221,217.342438 660.936035,215.222748 
	C662.165955,214.536133 663.548340,214.122711 664.912109,213.563385 
	C656.553955,200.917191 643.397522,196.037750 629.615112,200.270721 
	C617.346191,204.038879 608.618652,216.220627 608.994873,229.052078 
	C609.372559,241.930359 618.621887,253.395447 631.221436,256.603302 
	C644.589661,260.006866 657.737000,254.614700 664.734619,242.674973 
	C663.680908,242.224808 662.620728,241.857361 661.640869,241.338318 
	C657.656616,239.227783 654.519836,238.986954 650.999573,243.030731 
	C647.252991,247.334412 641.690186,248.706268 635.892395,247.564987 
	C628.581909,246.125916 623.537659,241.731323 621.170776,234.784958 
	C618.468689,226.854614 620.237549,219.689499 626.764954,213.180450 
M523.244629,198.996338 
	C522.246277,198.993164 521.247803,198.979965 520.249512,198.988373 
	C507.742126,199.093613 496.773193,206.620468 492.433258,218.072250 
	C488.165131,229.334518 491.461609,241.903931 500.874451,250.258850 
	C514.757141,262.581177 538.853210,258.537659 546.235107,242.461014 
	C542.999756,241.297501 539.784363,240.141190 536.675293,239.023117 
	C535.401306,240.440445 534.483765,241.628464 533.400818,242.639236 
	C525.726501,249.801987 514.771545,249.605972 507.412933,242.214249 
	C499.834991,234.602249 499.778961,221.943802 507.289276,214.298370 
	C514.557007,206.899933 526.217285,206.263306 533.139099,213.611038 
	C536.297485,216.963791 538.806152,217.356781 542.419861,215.261261 
	C543.643127,214.551926 545.042236,214.145905 546.573303,213.513626 
	C541.216064,204.962311 533.841919,200.219971 523.244629,198.996338 
M707.028870,237.791061 
	C704.625916,244.839676 700.036560,248.124725 693.816345,247.248657 
	C687.554016,246.366669 683.652466,241.401733 683.590210,234.020111 
	C683.522827,226.029495 683.576782,218.037872 683.577576,210.046677 
	C683.577820,207.815308 683.577576,205.583939 683.577576,203.287781 
	C679.556458,203.287781 676.418030,203.287781 672.789246,203.287781 
	C672.789246,205.066681 672.775818,206.695129 672.791321,208.323303 
	C672.889465,218.640625 672.362366,229.013687 673.267212,239.260117 
	C674.247253,250.356812 684.831909,257.571442 697.302979,256.861572 
	C708.880554,256.202545 717.733154,247.647003 717.982422,236.586899 
	C718.166260,228.433350 718.020691,220.272369 718.021667,212.114700 
	C718.022034,209.191559 718.021790,206.268433 718.021790,203.362946 
	C714.188049,203.362946 711.086670,203.362946 707.116455,203.362946 
	C707.116455,214.694580 707.116455,225.803528 707.028870,237.791061 
M354.493988,172.983582 
	C342.578217,172.983582 330.662415,172.983582 318.858612,172.983582 
	C318.858612,176.564911 318.858612,179.447769 318.858612,182.664551 
	C325.390015,182.664551 331.505463,182.664551 338.167297,182.664551 
	C338.167297,207.227753 338.167297,231.451279 338.167297,255.652817 
	C342.112274,255.652817 345.492920,255.652817 349.183807,255.652817 
	C349.183807,231.177826 349.183807,207.065155 349.183807,182.348419 
	C355.874207,182.348419 362.261200,182.348419 368.609100,182.348419 
	C368.609100,178.965515 368.609100,176.194489 368.609100,172.983582 
	C364.078003,172.983582 359.783997,172.983582 354.493988,172.983582 
M739.855469,252.266968 
	C739.855469,226.001175 739.855469,199.735397 739.855469,173.285645 
	C736.011475,173.285645 732.635437,173.285645 729.281067,173.285645 
	C729.281067,200.970184 729.281067,228.355652 729.281067,256.009125 
	C732.043884,256.009125 734.564514,256.288574 736.969360,255.882324 
	C738.050232,255.699753 738.899658,254.146759 739.855469,252.266968 
M590.197388,220.200546 
	C594.174377,216.768738 598.151428,213.336929 602.528015,209.560318 
	C601.489075,207.758698 599.876892,204.962936 597.930542,201.587677 
	C594.634583,203.820068 591.830566,205.719238 588.890686,207.710434 
	C588.651245,206.272339 588.416382,204.861282 588.169128,203.376083 
	C584.648376,203.376083 581.404968,203.376083 578.044006,203.376083 
	C578.044006,220.990082 578.044006,238.365753 578.044006,255.793900 
	C581.565857,255.793900 584.833740,255.793900 588.571289,255.793900 
	C588.571289,248.797882 588.403992,242.010620 588.628235,235.236313 
	C588.786072,230.471130 589.476501,225.723602 590.197388,220.200546 
M566.870117,207.724487 
	C566.771484,206.289230 566.672791,204.853989 566.579468,203.495956 
	C562.910522,203.495956 559.678040,203.495956 556.399597,203.495956 
	C556.399597,221.116440 556.399597,238.368088 556.399597,255.778656 
	C559.918152,255.778656 563.164307,255.778656 566.870544,255.778656 
	C566.870544,239.918304 566.870544,224.299423 566.870117,207.724487 
M554.234009,194.923721 
	C554.869141,195.874664 555.362427,196.971756 556.164551,197.750778 
	C559.311584,200.806992 564.369812,200.682999 567.213806,197.463409 
	C569.787903,194.549469 569.765076,191.474304 567.175598,188.583374 
	C564.304382,185.377884 558.994873,185.138290 556.156128,188.422287 
	C554.910339,189.863434 554.727661,192.223541 554.234009,194.923721 
z"/>
<path fill="#424244" opacity="1.000000" stroke="none" 
	d="
M259.898132,253.969574 
	C253.553238,254.052750 250.078796,256.799225 246.456497,261.891205 
	C239.071777,272.272156 222.978271,270.339905 216.664505,259.188354 
	C215.931580,257.893829 215.346832,256.515442 214.700882,255.191315 
	C214.355133,255.088516 214.040726,254.920868 213.721329,254.910812 
	C203.251541,254.580704 203.147308,254.476501 203.147644,244.101868 
	C203.147827,238.438278 203.013199,232.770889 203.173889,227.111862 
	C203.587646,212.541382 197.032074,201.249329 186.729355,191.701965 
	C183.434448,188.648651 179.499084,186.151917 176.723740,182.702866 
	C172.139969,177.006378 168.260620,170.743057 164.016891,164.621231 
	C162.916870,166.408859 161.204453,169.123596 159.562241,171.880173 
	C158.014832,174.477615 155.943100,176.043823 152.993790,174.402908 
	C149.790924,172.620956 150.132401,169.917877 151.786621,167.140381 
	C155.359344,161.141617 158.928528,155.140717 162.479218,149.128906 
	C164.490875,145.722885 167.057358,145.193298 170.427994,147.258392 
	C176.380295,150.905212 182.409546,154.426636 188.414536,157.987122 
	C191.075577,159.564911 192.362473,161.856049 190.771912,164.653595 
	C189.164352,167.481018 186.545364,167.508347 183.858276,165.925842 
	C180.927521,164.199814 177.985992,162.492035 174.362762,160.375305 
	C175.192245,167.653625 178.810135,172.258331 183.200653,176.351624 
	C187.821564,180.659714 193.387695,184.209091 197.113373,189.163437 
	C202.931030,196.899628 207.545822,205.540375 213.267334,214.759995 
	C225.455078,214.759995 239.411407,214.759995 253.597290,214.759995 
	C255.384552,210.689911 256.774231,206.183426 259.197357,202.326111 
	C262.707184,196.738922 266.431061,191.095520 271.030731,186.429382 
	C277.557709,179.808136 283.151947,172.752106 286.639374,164.128540 
	C287.916473,160.970612 289.356659,157.934814 293.438934,159.714661 
	C297.493103,161.482254 296.227783,164.776871 294.991699,167.816376 
	C291.302277,176.888504 285.896790,184.792892 278.774078,191.513504 
	C267.753296,201.912170 261.084290,214.151917 261.954407,229.832016 
	C262.295380,235.976395 262.139954,242.159958 261.930206,248.316132 
	C261.867584,250.154129 260.854248,251.959717 259.898132,253.969574 
M252.235718,224.095581 
	C238.996719,224.095581 225.757721,224.095581 212.426666,224.095581 
	C212.426666,231.508194 212.426666,238.410202 212.426666,245.508743 
	C226.036179,245.508743 239.380524,245.508743 252.905991,245.508743 
	C252.905991,238.383972 252.905991,231.583359 252.235718,224.095581 
M231.643097,254.947540 
	C229.587906,254.947540 227.532715,254.947540 224.947601,254.947540 
	C230.386856,261.074463 236.828064,260.844696 239.590958,254.947296 
	C237.196899,254.947296 234.872574,254.947296 231.643097,254.947540 
z"/>
<path fill="#99C497" opacity="1.000000" stroke="none" 
	d="
M963.267456,213.232819 
	C959.969604,215.666245 956.931763,217.842224 953.248108,220.480774 
	C959.495789,231.956436 966.132812,244.147171 973.129272,256.998230 
	C968.615540,256.998230 964.977539,257.235901 961.397583,256.883667 
	C959.922607,256.738525 957.949951,255.670258 957.264038,254.433655 
	C951.738464,244.472336 946.379517,234.414948 941.180542,224.278824 
	C939.973389,221.925156 938.754822,220.777618 935.958801,220.928467 
	C931.182983,221.186157 926.383179,220.999573 921.123901,220.999573 
	C921.123901,233.079300 921.123901,244.663345 921.123901,256.619751 
	C916.615051,256.619751 912.584045,256.619751 908.273682,256.619751 
	C908.273682,228.529800 908.273682,200.626694 908.273682,172.000610 
	C911.302612,172.000610 914.234497,172.000610 917.166443,172.000626 
	C926.993225,172.000656 936.820251,171.958496 946.646729,172.011810 
	C957.966370,172.073212 967.661133,181.125427 969.055176,192.429245 
	C970.003723,200.120575 968.889038,207.071594 963.267456,213.232819 
M929.551270,210.000000 
	C934.046997,209.999420 938.547485,210.130203 943.037354,209.968033 
	C950.092957,209.713211 955.393738,205.018051 955.989990,198.737106 
	C956.822632,189.965149 954.304199,184.624115 946.878235,183.700104 
	C938.461792,182.652847 929.814819,183.458450 921.341553,183.458450 
	C921.341553,192.418823 921.341553,200.997620 921.341553,210.000000 
	C923.976929,210.000000 926.275330,210.000000 929.551270,210.000000 
z"/>
<path fill="#99C497" opacity="1.000000" stroke="none" 
	d="
M1039.691895,251.825104 
	C1034.439941,253.693573 1029.538940,256.402954 1024.487305,256.721191 
	C1013.241333,257.429657 1001.920044,256.942261 990.317749,256.942261 
	C990.317749,228.609985 990.317749,200.699524 990.317749,172.474655 
	C991.382385,172.320526 992.484802,172.000443 993.578735,172.027191 
	C1005.518738,172.319046 1017.505554,172.112946 1029.383301,173.147202 
	C1042.001587,174.245926 1052.752319,187.078918 1052.105835,199.624710 
	C1051.583496,209.761444 1052.100586,219.947830 1051.970337,230.109818 
	C1051.851685,239.368790 1047.902954,246.619614 1039.691895,251.825104 
M1017.289795,246.000000 
	C1020.675232,245.406143 1024.123413,245.048355 1027.432983,244.169052 
	C1034.201416,242.370773 1038.387939,237.771988 1038.920898,230.864212 
	C1039.659790,221.289627 1040.190552,211.636368 1039.789673,202.059525 
	C1039.541260,196.127045 1038.172729,190.032928 1031.993530,186.473373 
	C1022.829529,181.194473 1013.075928,183.461487 1003.433472,183.122711 
	C1003.433472,204.359375 1003.433472,225.058243 1003.433472,246.000000 
	C1008.023254,246.000000 1012.181030,246.000000 1017.289795,246.000000 
z"/>
<path fill="#99C497" opacity="1.000000" stroke="none" 
	d="
M830.304443,223.389252 
	C836.642456,207.262314 842.948914,191.536057 848.848938,175.658752 
	C850.064026,172.388779 851.782959,171.802078 854.698059,171.970947 
	C857.907471,172.156891 861.223450,171.234482 862.872864,175.590408 
	C873.056458,202.482941 883.414185,229.309555 893.879578,256.589539 
	C889.483215,256.589539 885.277832,256.589539 880.558838,256.589539 
	C878.829041,251.963837 876.727539,247.001724 875.153992,241.877487 
	C874.282166,239.038345 873.085876,237.870087 870.002747,237.931213 
	C860.518005,238.119217 851.026367,238.067993 841.539185,237.957382 
	C838.814819,237.925613 837.200623,238.595047 836.628784,241.557510 
	C836.231262,243.617111 835.028931,245.513504 834.256104,247.509872 
	C830.119324,258.195221 829.894470,258.330109 817.841064,256.424561 
	C821.961365,245.463623 826.045105,234.600021 830.304443,223.389252 
M856.664246,190.307983 
	C856.173401,190.181900 855.267517,189.903976 855.250244,189.951187 
	C850.811401,202.082733 846.434387,214.236923 841.920288,226.766403 
	C851.379700,226.766403 860.300232,226.766403 869.607117,226.766403 
	C865.348389,214.750763 861.138550,202.872940 856.664246,190.307983 
z"/>
<path fill="#99C497" opacity="1.000000" stroke="none" 
	d="
M804.977356,195.999374 
	C800.220886,196.749863 797.796021,195.126831 795.816040,190.989960 
	C792.864319,184.822906 783.073792,181.129578 775.354614,183.161728 
	C767.512268,185.226303 762.754822,191.254990 762.350403,198.964874 
	C761.762024,210.180634 762.155334,221.524704 763.167969,232.720184 
	C763.823608,239.968628 769.179138,244.523071 776.260132,245.820709 
	C783.921387,247.224655 791.496704,245.434631 795.434509,238.451721 
	C798.179504,233.584152 801.151733,232.412201 805.940247,232.974030 
	C807.402405,233.145584 808.901733,233.000656 810.838745,233.000656 
	C808.356995,245.116226 801.489319,252.851288 790.210999,256.285828 
	C777.748962,260.080780 766.395081,257.846436 756.951538,248.418274 
	C751.500793,242.976532 749.511536,235.751587 749.214783,228.588135 
	C748.763245,217.685913 748.894714,206.638672 750.149292,195.811890 
	C752.733643,173.511032 776.823181,166.303833 793.193726,173.606689 
	C802.758850,177.873688 808.424377,185.198029 811.333984,195.999374 
	C808.938416,195.999374 807.183899,195.999374 804.977356,195.999374 
z"/>
<path fill="#444446" opacity="1.000000" stroke="none" 
	d="
M284.898193,135.977829 
	C280.547424,134.645569 276.597534,133.367661 272.628571,132.152069 
	C269.545685,131.207825 267.781372,128.920944 269.318573,126.207718 
	C270.191101,124.667603 273.378571,123.408302 275.276093,123.689880 
	C279.483459,124.314209 283.534790,125.990135 288.297241,127.433487 
	C287.943817,125.701561 287.828796,124.478622 287.443573,123.347717 
	C279.930878,101.293770 259.319855,85.937019 235.457413,84.576317 
	C212.635986,83.274963 190.431625,96.470078 180.363434,117.323685 
	C180.075287,117.920509 179.896912,118.571579 179.595215,119.160400 
	C178.279755,121.727821 176.583664,123.707123 173.336197,122.316437 
	C169.836105,120.817558 170.068039,118.072739 171.320465,115.218925 
	C172.253601,113.092690 173.269989,110.976944 174.493118,109.007980 
	C188.799759,85.977211 209.549179,74.059547 236.625153,75.742264 
	C265.424957,77.532112 285.052612,93.057564 295.922699,119.713417 
	C296.355865,120.775635 296.741882,121.857063 297.423492,123.648827 
	C299.520020,119.423447 301.379425,115.806328 303.117615,112.131874 
	C304.526215,109.154022 306.661957,107.444923 309.850403,109.020874 
	C313.184601,110.668846 312.551941,113.522964 311.214539,116.303772 
	C308.047974,122.887787 304.872711,129.467758 301.743164,136.069351 
	C300.283539,139.148270 298.021790,140.079926 294.804718,139.020462 
	C291.650452,137.981674 288.463470,137.042130 284.898193,135.977829 
z"/>
<path fill="#424244" opacity="1.000000" stroke="none" 
	d="
M470.626953,241.744049 
	C475.224182,235.391464 478.877808,241.836273 483.202606,241.443161 
	C477.049133,254.612579 460.875214,260.762329 446.739380,255.896194 
	C432.702148,251.063995 424.356140,236.004669 427.754639,221.640625 
	C431.301056,206.651489 445.608002,197.075287 461.335052,199.164001 
	C476.039764,201.116928 486.075958,212.838593 485.722839,228.068024 
	C470.027740,228.068024 454.314178,228.068024 438.668243,228.068024 
	C437.588715,235.091034 441.581879,242.142242 448.422638,245.813171 
	C455.537384,249.631088 463.176117,248.300003 470.626953,241.744049 
M441.654327,215.266678 
	C441.195190,216.349823 440.736053,217.432968 440.263245,218.548264 
	C451.537415,218.548264 462.259033,218.548264 473.063660,218.548264 
	C469.665588,206.787308 451.721619,204.702972 441.654327,215.266678 
z"/>
<path fill="#424244" opacity="1.000000" stroke="none" 
	d="
M414.330994,207.699188 
	C416.082214,211.238159 418.746338,214.469833 418.882416,217.804657 
	C419.396271,230.397339 419.088867,243.023529 419.088867,255.822418 
	C415.757904,255.822418 412.470245,255.822418 408.804596,255.822418 
	C408.804596,244.555801 408.806488,233.416550 408.803772,222.277283 
	C408.802460,216.918427 406.409332,212.959885 401.542938,210.775391 
	C397.193481,208.822937 392.763489,209.346634 389.596741,212.855728 
	C387.791992,214.855545 386.425629,218.002716 386.345886,220.677475 
	C385.998901,232.316193 386.196899,243.971146 386.196899,255.813110 
	C382.758148,255.813110 379.633240,255.813110 375.804596,255.813110 
	C375.804596,242.085831 375.804626,228.355499 375.804626,214.625168 
	C375.804626,200.971786 375.804596,187.318405 375.804596,173.327881 
	C379.226227,173.327881 382.450714,173.327881 386.109924,173.327881 
	C386.109924,182.664429 386.109924,192.081421 386.109924,201.934525 
	C396.543518,199.660507 406.310242,198.934235 414.330994,207.699188 
z"/>
<path fill="#444446" opacity="1.000000" stroke="none" 
	d="
M626.490173,213.430939 
	C620.237549,219.689499 618.468689,226.854614 621.170776,234.784958 
	C623.537659,241.731323 628.581909,246.125916 635.892395,247.564987 
	C641.690186,248.706268 647.252991,247.334412 650.999573,243.030731 
	C654.519836,238.986954 657.656616,239.227783 661.640869,241.338318 
	C662.620728,241.857361 663.680908,242.224808 664.734619,242.674973 
	C657.737000,254.614700 644.589661,260.006866 631.221436,256.603302 
	C618.621887,253.395447 609.372559,241.930359 608.994873,229.052078 
	C608.618652,216.220627 617.346191,204.038879 629.615112,200.270721 
	C643.397522,196.037750 656.553955,200.917191 664.912109,213.563385 
	C663.548340,214.122711 662.165955,214.536133 660.936035,215.222748 
	C657.139221,217.342438 654.492981,216.900970 651.210876,213.400208 
	C644.911865,206.681442 634.961670,206.982483 626.490173,213.430939 
z"/>
<path fill="#444446" opacity="1.000000" stroke="none" 
	d="
M523.695190,199.036163 
	C533.841919,200.219971 541.216064,204.962311 546.573303,213.513626 
	C545.042236,214.145905 543.643127,214.551926 542.419861,215.261261 
	C538.806152,217.356781 536.297485,216.963791 533.139099,213.611038 
	C526.217285,206.263306 514.557007,206.899933 507.289276,214.298370 
	C499.778961,221.943802 499.834991,234.602249 507.412933,242.214249 
	C514.771545,249.605972 525.726501,249.801987 533.400818,242.639236 
	C534.483765,241.628464 535.401306,240.440445 536.675293,239.023117 
	C539.784363,240.141190 542.999756,241.297501 546.235107,242.461014 
	C538.853210,258.537659 514.757141,262.581177 500.874451,250.258850 
	C491.461609,241.903931 488.165131,229.334518 492.433258,218.072250 
	C496.773193,206.620468 507.742126,199.093613 520.249512,198.988373 
	C521.247803,198.979965 522.246277,198.993164 523.695190,199.036163 
z"/>
<path fill="#474748" opacity="1.000000" stroke="none" 
	d="
M707.072632,237.351776 
	C707.116455,225.803528 707.116455,214.694580 707.116455,203.362946 
	C711.086670,203.362946 714.188049,203.362946 718.021790,203.362946 
	C718.021790,206.268433 718.022034,209.191559 718.021667,212.114700 
	C718.020691,220.272369 718.166260,228.433350 717.982422,236.586899 
	C717.733154,247.647003 708.880554,256.202545 697.302979,256.861572 
	C684.831909,257.571442 674.247253,250.356812 673.267212,239.260117 
	C672.362366,229.013687 672.889465,218.640625 672.791321,208.323303 
	C672.775818,206.695129 672.789246,205.066681 672.789246,203.287781 
	C676.418030,203.287781 679.556458,203.287781 683.577576,203.287781 
	C683.577576,205.583939 683.577820,207.815308 683.577576,210.046677 
	C683.576782,218.037872 683.522827,226.029495 683.590210,234.020111 
	C683.652466,241.401733 687.554016,246.366669 693.816345,247.248657 
	C700.036560,248.124725 704.625916,244.839676 707.072632,237.351776 
z"/>
<path fill="#454546" opacity="1.000000" stroke="none" 
	d="
M354.992004,172.983582 
	C359.783997,172.983582 364.078003,172.983582 368.609100,172.983582 
	C368.609100,176.194489 368.609100,178.965515 368.609100,182.348419 
	C362.261200,182.348419 355.874207,182.348419 349.183807,182.348419 
	C349.183807,207.065155 349.183807,231.177826 349.183807,255.652817 
	C345.492920,255.652817 342.112274,255.652817 338.167297,255.652817 
	C338.167297,231.451279 338.167297,207.227753 338.167297,182.664551 
	C331.505463,182.664551 325.390015,182.664551 318.858612,182.664551 
	C318.858612,179.447769 318.858612,176.564911 318.858612,172.983582 
	C330.662415,172.983582 342.578217,172.983582 354.992004,172.983582 
z"/>
<path fill="#434345" opacity="1.000000" stroke="none" 
	d="
M739.854797,252.741272 
	C738.899658,254.146759 738.050232,255.699753 736.969360,255.882324 
	C734.564514,256.288574 732.043884,256.009125 729.281067,256.009125 
	C729.281067,228.355652 729.281067,200.970184 729.281067,173.285645 
	C732.635437,173.285645 736.011475,173.285645 739.855469,173.285645 
	C739.855469,199.735397 739.855469,226.001175 739.854797,252.741272 
z"/>
<path fill="#454547" opacity="1.000000" stroke="none" 
	d="
M590.063232,220.584366 
	C589.476501,225.723602 588.786072,230.471130 588.628235,235.236313 
	C588.403992,242.010620 588.571289,248.797882 588.571289,255.793900 
	C584.833740,255.793900 581.565857,255.793900 578.044006,255.793900 
	C578.044006,238.365753 578.044006,220.990082 578.044006,203.376083 
	C581.404968,203.376083 584.648376,203.376083 588.169128,203.376083 
	C588.416382,204.861282 588.651245,206.272339 588.890686,207.710434 
	C591.830566,205.719238 594.634583,203.820068 597.930542,201.587677 
	C599.876892,204.962936 601.489075,207.758698 602.528015,209.560318 
	C598.151428,213.336929 594.174377,216.768738 590.063232,220.584366 
z"/>
<path fill="#48484A" opacity="1.000000" stroke="none" 
	d="
M566.870361,208.202515 
	C566.870544,224.299423 566.870544,239.918304 566.870544,255.778656 
	C563.164307,255.778656 559.918152,255.778656 556.399597,255.778656 
	C556.399597,238.368088 556.399597,221.116440 556.399597,203.495956 
	C559.678040,203.495956 562.910522,203.495956 566.579468,203.495956 
	C566.672791,204.853989 566.771484,206.289230 566.870361,208.202515 
z"/>
<path fill="#464648" opacity="1.000000" stroke="none" 
	d="
M554.148193,194.545044 
	C554.727661,192.223541 554.910339,189.863434 556.156128,188.422287 
	C558.994873,185.138290 564.304382,185.377884 567.175598,188.583374 
	C569.765076,191.474304 569.787903,194.549469 567.213806,197.463409 
	C564.369812,200.682999 559.311584,200.806992 556.164551,197.750778 
	C555.362427,196.971756 554.869141,195.874664 554.148193,194.545044 
z"/>
<path fill="#FAFAFA" opacity="1.000000" stroke="none" 
	d="
M252.570862,224.439163 
	C252.905991,231.583359 252.905991,238.383972 252.905991,245.508743 
	C239.380524,245.508743 226.036179,245.508743 212.426666,245.508743 
	C212.426666,238.410202 212.426666,231.508194 212.426666,224.095581 
	C225.757721,224.095581 238.996719,224.095581 252.570862,224.439163 
z"/>
<path fill="#F4F4F4" opacity="1.000000" stroke="none" 
	d="
M232.095673,254.947418 
	C234.872574,254.947296 237.196899,254.947296 239.590958,254.947296 
	C236.828064,260.844696 230.386856,261.074463 224.947601,254.947540 
	C227.532715,254.947540 229.587906,254.947540 232.095673,254.947418 
z"/>
<path fill="#FFFFFF" opacity="1.000000" stroke="none" 
	d="
M929.062500,210.000000 
	C926.275330,210.000000 923.976929,210.000000 921.341553,210.000000 
	C921.341553,200.997620 921.341553,192.418823 921.341553,183.458450 
	C929.814819,183.458450 938.461792,182.652847 946.878235,183.700104 
	C954.304199,184.624115 956.822632,189.965149 955.989990,198.737106 
	C955.393738,205.018051 950.092957,209.713211 943.037354,209.968033 
	C938.547485,210.130203 934.046997,209.999420 929.062500,210.000000 
z"/>
<path fill="#FFFFFF" opacity="1.000000" stroke="none" 
	d="
M1016.814331,246.000000 
	C1012.181030,246.000000 1008.023254,246.000000 1003.433472,246.000000 
	C1003.433472,225.058243 1003.433472,204.359375 1003.433472,183.122711 
	C1013.075928,183.461487 1022.829529,181.194473 1031.993530,186.473373 
	C1038.172729,190.032928 1039.541260,196.127045 1039.789673,202.059525 
	C1040.190552,211.636368 1039.659790,221.289627 1038.920898,230.864212 
	C1038.387939,237.771988 1034.201416,242.370773 1027.432983,244.169052 
	C1024.123413,245.048355 1020.675232,245.406143 1016.814331,246.000000 
z"/>
<path fill="#FFFFFF" opacity="1.000000" stroke="none" 
	d="
M856.796448,190.651550 
	C861.138550,202.872940 865.348389,214.750763 869.607117,226.766403 
	C860.300232,226.766403 851.379700,226.766403 841.920288,226.766403 
	C846.434387,214.236923 850.811401,202.082733 855.250244,189.951187 
	C855.267517,189.903976 856.173401,190.181900 856.796448,190.651550 
z"/>
<path fill="#F3F3F3" opacity="1.000000" stroke="none" 
	d="
M441.851135,214.953552 
	C451.721619,204.702972 469.665588,206.787308 473.063660,218.548264 
	C462.259033,218.548264 451.537415,218.548264 440.263245,218.548264 
	C440.736053,217.432968 441.195190,216.349823 441.851135,214.953552 
z"/>
</svg>