<svg version="1.1" id="Layer_1" xmlns="http://www.w3.org/2000/svg" xmlns:xlink="http://www.w3.org/1999/xlink" x="0px" y="0px"
	 width="100%" viewBox="0 0 1080 366" enable-background="new 0 0 1080 366" xml:space="preserve">
<path fill="#FFFFFF" opacity="1.000000" stroke="none" 
	d="
M768.000000,367.000000 
	C512.000000,367.000000 256.500000,367.000000 1.000000,367.000000 
	C1.000000,245.000000 1.000000,123.000000 1.000000,1.000000 
	C361.000000,1.000000 721.000000,1.000000 1081.000000,1.000000 
	C1081.000000,123.000000 1081.000000,245.000000 1081.000000,367.000000 
	C976.833313,367.000000 872.666687,367.000000 768.000000,367.000000 
M203.147812,235.497971 
	C203.147812,237.829315 203.147858,240.160660 203.147797,242.492004 
	C203.147491,254.118973 203.147491,254.118973 214.717697,255.159454 
	C215.232025,256.283325 215.701996,257.521057 216.338516,258.666138 
	C219.869736,265.018738 225.325989,268.410583 232.559036,268.504852 
	C239.839325,268.599854 245.665466,265.349030 248.750229,258.825317 
	C250.357208,255.426849 252.206528,254.600342 255.495422,254.810394 
	C259.985229,255.097153 262.250458,253.117996 262.066620,248.297195 
	C261.831970,242.144501 262.293152,235.960480 261.954773,229.817474 
	C261.091461,214.143646 267.758270,201.906784 278.775970,191.511597 
	C285.896912,184.792999 291.300751,176.890274 294.989807,167.821075 
	C296.224854,164.784760 297.496399,161.492386 293.445679,159.717514 
	C289.361725,157.928085 287.914764,160.960159 286.645844,164.120575 
	C283.243744,172.593842 277.761597,179.550858 271.425262,186.098206 
	C266.858490,190.817078 262.955261,196.294769 259.420258,201.856186 
	C256.889160,205.838181 255.457504,210.518997 253.587769,214.768799 
	C239.439789,214.768799 225.486267,214.768799 211.623947,214.768799 
	C204.207886,196.092133 201.846237,192.837204 188.072952,180.706451 
	C184.477829,177.540070 181.012207,174.104904 178.110794,170.315628 
	C176.198746,167.818527 175.402283,164.467239 174.106293,161.498428 
	C174.499481,161.274384 174.892670,161.050339 175.285858,160.826294 
	C178.125778,162.517426 180.965668,164.208618 183.805664,165.899643 
	C186.464706,167.482971 189.091476,167.525558 190.740417,164.704636 
	C192.367477,161.921127 191.127151,159.603058 188.468338,158.019852 
	C182.471619,154.449173 176.421585,150.964706 170.490860,147.287750 
	C166.817947,145.010620 164.270752,145.982178 162.223022,149.472458 
	C158.774658,155.349976 155.300690,161.212540 151.820099,167.071045 
	C150.183502,169.825745 149.731293,172.546356 152.927582,174.360535 
	C156.164062,176.197495 158.207840,174.225784 159.795914,171.533371 
	C161.352036,168.895172 162.942245,166.277069 165.215286,162.486481 
	C167.758469,175.553940 176.244247,182.780533 184.730698,190.055862 
	C187.621735,192.534348 190.508987,195.126099 192.881790,198.080627 
	C201.428635,208.722946 204.590225,220.988678 203.147812,235.497971 
M821.889160,222.500000 
	C821.889160,233.574249 821.889160,244.648499 821.889160,255.709290 
	C825.691589,255.709290 828.624695,255.709290 832.231079,255.709290 
	C832.231079,246.719254 832.231079,238.005676 832.231079,229.620789 
	C839.117004,227.576569 843.210999,229.668304 846.152588,235.523788 
	C848.677795,240.550186 852.176025,245.086853 855.233093,249.847107 
	C859.522705,256.526672 862.707153,257.619293 870.998169,255.015045 
	C865.171204,245.928619 859.388855,236.911713 853.564880,227.830048 
	C855.394897,226.632874 856.687439,225.875122 857.885559,224.989639 
	C867.799072,217.663177 873.096436,208.098221 870.559570,195.632034 
	C868.089966,183.496902 860.113647,175.648560 848.116272,173.671173 
	C839.752197,172.292633 830.977478,173.405563 821.888916,173.405563 
	C821.888916,189.595184 821.888916,205.547592 821.889160,222.500000 
M242.724289,85.330124 
	C266.117706,90.609604 286.287048,109.150696 287.917542,127.288971 
	C283.516052,125.961899 279.331909,124.243561 274.989410,123.609146 
	C273.176361,123.344284 270.125397,124.885818 269.237762,126.491020 
	C267.852203,128.996643 269.603516,131.208145 272.439026,132.083267 
	C280.053253,134.433212 287.609924,137.020218 295.335114,138.921051 
	C297.083130,139.351151 300.446503,137.953415 301.312958,136.411682 
	C305.128052,129.623016 308.549469,122.576027 311.519043,115.377403 
	C312.194855,113.739128 311.175842,110.218208 309.750885,109.158257 
	C307.253998,107.300941 304.748810,108.832626 303.357117,111.674049 
	C301.492188,115.481590 299.597961,119.274773 297.432495,123.647156 
	C296.752380,121.874901 296.329041,120.808594 295.932281,119.732491 
	C284.197510,87.905975 251.558319,69.760345 218.346237,77.043388 
	C196.646774,81.801849 181.167877,94.745209 171.547745,114.715759 
	C170.148285,117.620872 169.506790,120.576370 173.289093,122.287697 
	C176.507828,123.744034 178.215866,121.774254 179.574860,119.213470 
	C193.449890,93.068626 212.768250,82.512993 242.724289,85.330124 
M779.702698,172.994705 
	C776.434875,172.356415 775.531494,174.384949 774.580200,177.009186 
	C767.550903,196.400970 760.355530,215.732468 753.256714,235.099182 
	C750.775879,241.867157 748.419678,248.680817 745.817139,256.006958 
	C748.160339,256.006958 749.685486,255.785324 751.122314,256.047607 
	C755.848572,256.910370 757.788879,254.720917 759.168762,250.343826 
	C761.816589,241.944366 765.237427,233.791382 768.177307,225.479462 
	C769.063538,222.973755 770.175232,221.671753 773.124451,221.833221 
	C778.108887,222.106140 783.125671,222.061111 788.115906,221.847641 
	C790.941711,221.726746 792.235168,222.789810 793.130615,225.417633 
	C795.812195,233.288223 798.781555,241.060333 801.594849,248.886627 
	C804.458069,256.852020 805.986633,257.606720 814.803284,255.174850 
	C814.762268,254.703293 814.822998,254.182083 814.663391,253.740555 
	C805.332092,227.927628 795.898621,202.151016 786.732422,176.279709 
	C785.473755,172.727219 783.232666,172.918793 779.702698,172.994705 
M441.117889,239.169357 
	C439.875214,235.741272 438.632507,232.313202 437.078308,228.025787 
	C454.329010,228.025787 470.053009,228.025787 485.762665,228.025787 
	C485.879547,212.595886 475.844727,200.988358 461.183105,199.144485 
	C445.575073,197.181610 431.407990,206.623001 427.824249,221.375916 
	C424.358582,235.642792 432.259735,250.472824 446.082306,255.645172 
	C460.244781,260.944733 476.283600,255.125778 483.137726,241.884827 
	C481.109039,241.150146 479.045563,240.596588 477.163574,239.673080 
	C474.717834,238.472916 473.172272,238.864716 471.205994,240.971039 
	C462.066681,250.761215 450.463043,250.191238 441.117889,239.169357 
M408.805634,247.404984 
	C408.805634,250.183426 408.805634,252.961868 408.805634,255.770477 
	C412.574890,255.770477 415.843262,255.770477 419.293396,255.770477 
	C419.293396,243.419525 419.838074,231.272430 419.131592,219.198547 
	C418.496826,208.350357 410.272919,201.080353 399.275330,200.558243 
	C395.085876,200.359360 390.849121,201.156525 386.247192,201.531219 
	C386.247192,192.188477 386.247192,182.750900 386.247192,173.237244 
	C382.595062,173.237244 379.337433,173.237244 376.033936,173.237244 
	C376.033936,200.896927 376.033936,228.308502 376.033936,255.701996 
	C379.501892,255.701996 382.735840,255.701996 386.196899,255.701996 
	C386.196899,243.753479 385.959778,232.101486 386.370300,220.472351 
	C386.468018,217.704376 388.155518,214.455322 390.131104,212.414047 
	C393.262634,209.178375 397.602264,208.915237 401.717163,210.847229 
	C406.337433,213.016479 408.759277,216.810410 408.791107,221.955292 
	C408.841553,230.112671 408.805420,238.270599 408.805634,247.404984 
M658.745239,250.258911 
	C660.861328,247.867706 662.977478,245.476517 665.396606,242.742996 
	C661.408325,241.298386 658.321167,240.180161 655.148804,239.031082 
	C650.055420,245.081726 644.121643,249.060425 635.975525,247.582321 
	C627.448669,246.035141 621.183472,239.150848 620.125549,230.512589 
	C619.120667,222.307251 623.685791,213.813751 631.013611,210.255173 
	C638.412231,206.662231 646.519165,208.532791 653.218872,215.178284 
	C654.101013,216.053268 655.817932,216.891251 656.873047,216.630966 
	C659.630188,215.950775 662.234863,214.652222 664.968384,213.573318 
	C652.984558,193.984940 625.302917,194.384155 613.571411,212.655640 
	C605.983398,224.473663 608.026550,240.133408 618.396729,249.551773 
	C629.655457,259.777161 645.698486,260.251678 658.745239,250.258911 
M531.851868,255.470367 
	C538.164612,252.905777 543.011658,248.725891 546.628601,242.558838 
	C542.906982,241.252182 539.684265,240.120682 537.626770,239.398300 
	C533.493591,242.257309 530.521362,245.111710 526.975830,246.606918 
	C518.447266,250.203598 508.731812,246.174515 504.057922,237.711044 
	C499.234680,228.977127 501.818237,217.790878 510.022247,211.886612 
	C517.411133,206.568970 527.698669,207.460693 533.989868,214.406769 
	C536.167603,216.811157 537.956360,217.418228 540.739563,215.958954 
	C542.546204,215.011703 544.505737,214.356003 546.453186,213.546188 
	C537.770325,199.985519 521.949585,195.211319 507.887421,201.601761 
	C494.433075,207.715988 487.636871,222.864166 492.005463,237.001373 
	C496.919373,252.903305 513.386780,260.816742 531.851868,255.470367 
M673.098938,239.294357 
	C676.399841,251.916367 685.904846,258.357849 698.818054,256.723969 
	C711.003357,255.182205 718.011902,246.729401 718.020447,233.561295 
	C718.023499,228.899063 718.021545,224.236832 718.021606,219.574600 
	C718.021729,214.154831 718.021667,208.735046 718.021667,203.377899 
	C714.164673,203.377899 711.062622,203.377899 707.429077,203.377899 
	C707.429077,212.902603 707.446838,222.189774 707.424316,231.476822 
	C707.400085,241.470383 703.027405,247.359955 695.641785,247.413361 
	C687.852905,247.469681 683.572449,241.772247 683.575378,231.360123 
	C683.577942,222.079453 683.575867,212.798767 683.575867,203.349548 
	C679.704163,203.349548 676.443848,203.349548 672.989929,203.349548 
	C672.989929,215.193924 672.989929,226.825745 673.098938,239.294357 
M318.455353,174.834534 
	C318.455353,177.269150 318.455353,179.703766 318.455353,182.647552 
	C325.292969,182.647552 331.521942,182.647552 338.253052,182.647552 
	C338.253052,207.354507 338.253052,231.546661 338.253052,255.809387 
	C342.044434,255.809387 345.308105,255.809387 349.024658,255.809387 
	C349.024658,231.400879 349.024658,207.193771 349.024658,182.400604 
	C355.850525,182.400604 362.236755,182.400604 368.638916,182.400604 
	C368.638916,179.033493 368.638916,176.260391 368.638916,173.295624 
	C367.829346,173.176453 367.201843,173.004150 366.574188,173.003403 
	C351.601410,172.985870 336.628571,172.967758 321.656006,173.025681 
	C320.623474,173.029663 319.593201,173.625824 318.455353,174.834534 
M896.887390,221.500000 
	C896.887390,232.901489 896.887390,244.302979 896.887390,255.722672 
	C900.665344,255.722672 903.596008,255.722672 907.140747,255.722672 
	C907.140747,231.418762 907.140747,207.386841 907.140747,182.770721 
	C913.982422,182.770721 920.221008,182.770721 926.707520,182.770721 
	C926.707520,179.285492 926.707520,176.396408 926.707520,173.369858 
	C910.048645,173.369858 893.691284,173.369858 877.413086,173.369858 
	C877.413086,176.639404 877.413086,179.523407 877.413086,183.013580 
	C884.042175,183.013580 890.262085,183.013580 896.887207,183.013580 
	C896.887207,195.922516 896.887207,208.211258 896.887390,221.500000 
M739.855530,208.500015 
	C739.855530,196.745911 739.855530,184.991791 739.855530,173.210083 
	C735.929565,173.210083 732.664795,173.210083 729.201721,173.210083 
	C729.201721,200.812057 729.201721,228.191635 729.201721,255.686493 
	C732.794739,255.686493 736.167358,255.686493 739.855530,255.686493 
	C739.855530,240.076569 739.855530,224.788300 739.855530,208.500015 
M584.397827,256.017090 
	C585.669556,255.926834 586.941223,255.836563 588.568176,255.721069 
	C588.568176,246.287659 588.472412,237.146683 588.596497,228.008682 
	C588.708984,219.729614 592.679138,214.523392 600.403809,212.030975 
	C601.281982,211.747650 602.133240,211.381027 603.317627,210.931290 
	C601.484863,207.753021 599.870483,204.953400 597.923340,201.576736 
	C594.610901,203.824463 591.805420,205.728165 588.927734,207.680878 
	C588.661011,206.239182 588.398438,204.819748 588.139221,203.418427 
	C584.601990,203.418427 581.360901,203.418427 577.960327,203.418427 
	C577.960327,220.995789 577.960327,238.293610 577.960327,256.017395 
	C579.896118,256.017395 581.690857,256.017395 584.397827,256.017090 
M556.129761,207.729645 
	C556.129761,223.679459 556.129761,239.629257 556.129761,255.799240 
	C559.878662,255.799240 563.124695,255.799240 566.512512,255.799240 
	C566.512512,238.199570 566.512512,220.826035 566.512512,203.130478 
	C563.844421,203.130478 561.519714,203.284531 559.224060,203.092072 
	C556.255737,202.843231 555.923706,204.525360 556.129761,207.729645 
M564.553345,199.316544 
	C564.996216,199.097977 565.490601,198.946182 565.873718,198.650223 
	C568.818604,196.375076 570.184265,193.496582 568.190918,190.050110 
	C566.117004,186.464417 562.846252,185.340637 558.870056,186.721375 
	C555.515137,187.886414 553.529175,190.244934 554.100891,193.835175 
	C554.724548,197.751678 557.382202,199.760941 561.378052,199.848480 
	C562.194275,199.866379 563.014282,199.716690 564.553345,199.316544 
z"/>
<path fill="#424244" opacity="1.000000" stroke="none" 
	d="
M203.147827,234.999161 
	C204.590225,220.988678 201.428635,208.722946 192.881790,198.080627 
	C190.508987,195.126099 187.621735,192.534348 184.730698,190.055862 
	C176.244247,182.780533 167.758469,175.553940 165.215286,162.486481 
	C162.942245,166.277069 161.352036,168.895172 159.795914,171.533371 
	C158.207840,174.225784 156.164062,176.197495 152.927582,174.360535 
	C149.731293,172.546356 150.183502,169.825745 151.820099,167.071045 
	C155.300690,161.212540 158.774658,155.349976 162.223022,149.472458 
	C164.270752,145.982178 166.817947,145.010620 170.490860,147.287750 
	C176.421585,150.964706 182.471619,154.449173 188.468338,158.019852 
	C191.127151,159.603058 192.367477,161.921127 190.740417,164.704636 
	C189.091476,167.525558 186.464706,167.482971 183.805664,165.899643 
	C180.965668,164.208618 178.125778,162.517426 175.285858,160.826294 
	C174.892670,161.050339 174.499481,161.274384 174.106293,161.498428 
	C175.402283,164.467239 176.198746,167.818527 178.110794,170.315628 
	C181.012207,174.104904 184.477829,177.540070 188.072952,180.706451 
	C201.846237,192.837204 204.207886,196.092133 211.623947,214.768799 
	C225.486267,214.768799 239.439789,214.768799 253.587769,214.768799 
	C255.457504,210.518997 256.889160,205.838181 259.420258,201.856186 
	C262.955261,196.294769 266.858490,190.817078 271.425262,186.098206 
	C277.761597,179.550858 283.243744,172.593842 286.645844,164.120575 
	C287.914764,160.960159 289.361725,157.928085 293.445679,159.717514 
	C297.496399,161.492386 296.224854,164.784760 294.989807,167.821075 
	C291.300751,176.890274 285.896912,184.792999 278.775970,191.511597 
	C267.758270,201.906784 261.091461,214.143646 261.954773,229.817474 
	C262.293152,235.960480 261.831970,242.144501 262.066620,248.297195 
	C262.250458,253.117996 259.985229,255.097153 255.495422,254.810394 
	C252.206528,254.600342 250.357208,255.426849 248.750229,258.825317 
	C245.665466,265.349030 239.839325,268.599854 232.559036,268.504852 
	C225.325989,268.410583 219.869736,265.018738 216.338516,258.666138 
	C215.701996,257.521057 215.232025,256.283325 214.717697,255.159454 
	C203.147491,254.118973 203.147491,254.118973 203.147797,242.492004 
	C203.147858,240.160660 203.147812,237.829315 203.147827,234.999161 
M249.332092,223.996338 
	C237.080002,223.996338 224.827927,223.996338 212.571548,223.996338 
	C212.571548,231.568146 212.571548,238.591156 212.571548,245.539001 
	C226.207184,245.539001 239.432953,245.539001 252.997040,245.539001 
	C252.997040,238.955124 253.095139,232.658264 252.877533,226.372330 
	C252.849136,225.551910 251.197891,224.787674 249.332092,223.996338 
M238.261169,257.640289 
	C238.843140,256.977417 239.425110,256.314545 240.305664,255.311584 
	C234.933990,255.311584 230.205490,255.311584 224.940445,255.311584 
	C228.855667,259.880341 232.910522,260.558502 238.261169,257.640289 
z"/>
<path fill="#9AC598" opacity="1.000000" stroke="none" 
	d="
M821.889038,222.000000 
	C821.888916,205.547592 821.888916,189.595184 821.888916,173.405563 
	C830.977478,173.405563 839.752197,172.292633 848.116272,173.671173 
	C860.113647,175.648560 868.089966,183.496902 870.559570,195.632034 
	C873.096436,208.098221 867.799072,217.663177 857.885559,224.989639 
	C856.687439,225.875122 855.394897,226.632874 853.564880,227.830048 
	C859.388855,236.911713 865.171204,245.928619 870.998169,255.015045 
	C862.707153,257.619293 859.522705,256.526672 855.233093,249.847107 
	C852.176025,245.086853 848.677795,240.550186 846.152588,235.523788 
	C843.210999,229.668304 839.117004,227.576569 832.231079,229.620789 
	C832.231079,238.005676 832.231079,246.719254 832.231079,255.709290 
	C828.624695,255.709290 825.691589,255.709290 821.889160,255.709290 
	C821.889160,244.648499 821.889160,233.574249 821.889038,222.000000 
M832.366699,218.956451 
	C836.243835,219.209167 840.197266,220.070541 843.983337,219.596375 
	C853.903137,218.354019 860.091187,211.080002 860.199158,201.365005 
	C860.308899,191.485321 854.514160,184.370911 844.628540,182.555038 
	C842.211670,182.111069 839.660950,182.454056 837.195557,182.202545 
	C833.383301,181.813599 831.898193,183.110748 832.012329,187.197235 
	C832.299622,197.481293 832.135254,207.777954 832.366699,218.956451 
z"/>
<path fill="#444446" opacity="1.000000" stroke="none" 
	d="
M242.286255,85.254631 
	C212.768250,82.512993 193.449890,93.068626 179.574860,119.213470 
	C178.215866,121.774254 176.507828,123.744034 173.289093,122.287697 
	C169.506790,120.576370 170.148285,117.620872 171.547745,114.715759 
	C181.167877,94.745209 196.646774,81.801849 218.346237,77.043388 
	C251.558319,69.760345 284.197510,87.905975 295.932281,119.732491 
	C296.329041,120.808594 296.752380,121.874901 297.432495,123.647156 
	C299.597961,119.274773 301.492188,115.481590 303.357117,111.674049 
	C304.748810,108.832626 307.253998,107.300941 309.750885,109.158257 
	C311.175842,110.218208 312.194855,113.739128 311.519043,115.377403 
	C308.549469,122.576027 305.128052,129.623016 301.312958,136.411682 
	C300.446503,137.953415 297.083130,139.351151 295.335114,138.921051 
	C287.609924,137.020218 280.053253,134.433212 272.439026,132.083267 
	C269.603516,131.208145 267.852203,128.996643 269.237762,126.491020 
	C270.125397,124.885818 273.176361,123.344284 274.989410,123.609146 
	C279.331909,124.243561 283.516052,125.961899 287.917542,127.288971 
	C286.287048,109.150696 266.117706,90.609604 242.286255,85.254631 
z"/>
<path fill="#9AC598" opacity="1.000000" stroke="none" 
	d="
M780.132446,172.994598 
	C783.232666,172.918793 785.473755,172.727219 786.732422,176.279709 
	C795.898621,202.151016 805.332092,227.927628 814.663391,253.740555 
	C814.822998,254.182083 814.762268,254.703293 814.803284,255.174850 
	C805.986633,257.606720 804.458069,256.852020 801.594849,248.886627 
	C798.781555,241.060333 795.812195,233.288223 793.130615,225.417633 
	C792.235168,222.789810 790.941711,221.726746 788.115906,221.847641 
	C783.125671,222.061111 778.108887,222.106140 773.124451,221.833221 
	C770.175232,221.671753 769.063538,222.973755 768.177307,225.479462 
	C765.237427,233.791382 761.816589,241.944366 759.168762,250.343826 
	C757.788879,254.720917 755.848572,256.910370 751.122314,256.047607 
	C749.685486,255.785324 748.160339,256.006958 745.817139,256.006958 
	C748.419678,248.680817 750.775879,241.867157 753.256714,235.099182 
	C760.355530,215.732468 767.550903,196.400970 774.580200,177.009186 
	C775.531494,174.384949 776.434875,172.356415 780.132446,172.994598 
M786.509094,207.004944 
	C784.731628,202.115021 782.954102,197.225082 780.697083,191.015839 
	C777.823853,199.016220 775.462219,205.592194 773.024963,212.378693 
	C778.372131,212.378693 783.035583,212.378693 788.248657,212.378693 
	C787.667480,210.471222 787.251099,209.104446 786.509094,207.004944 
z"/>
<path fill="#424244" opacity="1.000000" stroke="none" 
	d="
M441.330475,239.476135 
	C450.463043,250.191238 462.066681,250.761215 471.205994,240.971039 
	C473.172272,238.864716 474.717834,238.472916 477.163574,239.673080 
	C479.045563,240.596588 481.109039,241.150146 483.137726,241.884827 
	C476.283600,255.125778 460.244781,260.944733 446.082306,255.645172 
	C432.259735,250.472824 424.358582,235.642792 427.824249,221.375916 
	C431.407990,206.623001 445.575073,197.181610 461.183105,199.144485 
	C475.844727,200.988358 485.879547,212.595886 485.762665,228.025787 
	C470.053009,228.025787 454.329010,228.025787 437.078308,228.025787 
	C438.632507,232.313202 439.875214,235.741272 441.330475,239.476135 
M443.557861,213.020569 
	C442.372101,214.706238 441.186371,216.391907 439.681335,218.531464 
	C451.355347,218.531464 462.175568,218.531464 473.091370,218.531464 
	C469.890411,207.923538 454.856262,204.957474 443.557861,213.020569 
z"/>
<path fill="#424244" opacity="1.000000" stroke="none" 
	d="
M408.805756,246.916626 
	C408.805420,238.270599 408.841553,230.112671 408.791107,221.955292 
	C408.759277,216.810410 406.337433,213.016479 401.717163,210.847229 
	C397.602264,208.915237 393.262634,209.178375 390.131104,212.414047 
	C388.155518,214.455322 386.468018,217.704376 386.370300,220.472351 
	C385.959778,232.101486 386.196899,243.753479 386.196899,255.701996 
	C382.735840,255.701996 379.501892,255.701996 376.033936,255.701996 
	C376.033936,228.308502 376.033936,200.896927 376.033936,173.237244 
	C379.337433,173.237244 382.595062,173.237244 386.247192,173.237244 
	C386.247192,182.750900 386.247192,192.188477 386.247192,201.531219 
	C390.849121,201.156525 395.085876,200.359360 399.275330,200.558243 
	C410.272919,201.080353 418.496826,208.350357 419.131592,219.198547 
	C419.838074,231.272430 419.293396,243.419525 419.293396,255.770477 
	C415.843262,255.770477 412.574890,255.770477 408.805634,255.770477 
	C408.805634,252.961868 408.805634,250.183426 408.805756,246.916626 
z"/>
<path fill="#444446" opacity="1.000000" stroke="none" 
	d="
M658.478455,250.494186 
	C645.698486,260.251678 629.655457,259.777161 618.396729,249.551773 
	C608.026550,240.133408 605.983398,224.473663 613.571411,212.655640 
	C625.302917,194.384155 652.984558,193.984940 664.968384,213.573318 
	C662.234863,214.652222 659.630188,215.950775 656.873047,216.630966 
	C655.817932,216.891251 654.101013,216.053268 653.218872,215.178284 
	C646.519165,208.532791 638.412231,206.662231 631.013611,210.255173 
	C623.685791,213.813751 619.120667,222.307251 620.125549,230.512589 
	C621.183472,239.150848 627.448669,246.035141 635.975525,247.582321 
	C644.121643,249.060425 650.055420,245.081726 655.148804,239.031082 
	C658.321167,240.180161 661.408325,241.298386 665.396606,242.742996 
	C662.977478,245.476517 660.861328,247.867706 658.478455,250.494186 
z"/>
<path fill="#444446" opacity="1.000000" stroke="none" 
	d="
M531.498474,255.640167 
	C513.386780,260.816742 496.919373,252.903305 492.005463,237.001373 
	C487.636871,222.864166 494.433075,207.715988 507.887421,201.601761 
	C521.949585,195.211319 537.770325,199.985519 546.453186,213.546188 
	C544.505737,214.356003 542.546204,215.011703 540.739563,215.958954 
	C537.956360,217.418228 536.167603,216.811157 533.989868,214.406769 
	C527.698669,207.460693 517.411133,206.568970 510.022247,211.886612 
	C501.818237,217.790878 499.234680,228.977127 504.057922,237.711044 
	C508.731812,246.174515 518.447266,250.203598 526.975830,246.606918 
	C530.521362,245.111710 533.493591,242.257309 537.626770,239.398300 
	C539.684265,240.120682 542.906982,241.252182 546.628601,242.558838 
	C543.011658,248.725891 538.164612,252.905777 531.498474,255.640167 
z"/>
<path fill="#474748" opacity="1.000000" stroke="none" 
	d="
M673.044434,238.875977 
	C672.989929,226.825745 672.989929,215.193924 672.989929,203.349548 
	C676.443848,203.349548 679.704163,203.349548 683.575867,203.349548 
	C683.575867,212.798767 683.577942,222.079453 683.575378,231.360123 
	C683.572449,241.772247 687.852905,247.469681 695.641785,247.413361 
	C703.027405,247.359955 707.400085,241.470383 707.424316,231.476822 
	C707.446838,222.189774 707.429077,212.902603 707.429077,203.377899 
	C711.062622,203.377899 714.164673,203.377899 718.021667,203.377899 
	C718.021667,208.735046 718.021729,214.154831 718.021606,219.574600 
	C718.021545,224.236832 718.023499,228.899063 718.020447,233.561295 
	C718.011902,246.729401 711.003357,255.182205 698.818054,256.723969 
	C685.904846,258.357849 676.399841,251.916367 673.044434,238.875977 
z"/>
<path fill="#454546" opacity="1.000000" stroke="none" 
	d="
M318.508606,174.390564 
	C319.593201,173.625824 320.623474,173.029663 321.656006,173.025681 
	C336.628571,172.967758 351.601410,172.985870 366.574188,173.003403 
	C367.201843,173.004150 367.829346,173.176453 368.638916,173.295624 
	C368.638916,176.260391 368.638916,179.033493 368.638916,182.400604 
	C362.236755,182.400604 355.850525,182.400604 349.024658,182.400604 
	C349.024658,207.193771 349.024658,231.400879 349.024658,255.809387 
	C345.308105,255.809387 342.044434,255.809387 338.253052,255.809387 
	C338.253052,231.546661 338.253052,207.354507 338.253052,182.647552 
	C331.521942,182.647552 325.292969,182.647552 318.455353,182.647552 
	C318.455353,179.703766 318.455353,177.269150 318.508606,174.390564 
z"/>
<path fill="#9AC598" opacity="1.000000" stroke="none" 
	d="
M896.887329,221.000000 
	C896.887207,208.211258 896.887207,195.922516 896.887207,183.013580 
	C890.262085,183.013580 884.042175,183.013580 877.413086,183.013580 
	C877.413086,179.523407 877.413086,176.639404 877.413086,173.369858 
	C893.691284,173.369858 910.048645,173.369858 926.707520,173.369858 
	C926.707520,176.396408 926.707520,179.285492 926.707520,182.770721 
	C920.221008,182.770721 913.982422,182.770721 907.140747,182.770721 
	C907.140747,207.386841 907.140747,231.418762 907.140747,255.722672 
	C903.596008,255.722672 900.665344,255.722672 896.887390,255.722672 
	C896.887390,244.302979 896.887390,232.901489 896.887329,221.000000 
z"/>
<path fill="#434345" opacity="1.000000" stroke="none" 
	d="
M739.855530,209.000031 
	C739.855530,224.788300 739.855530,240.076569 739.855530,255.686493 
	C736.167358,255.686493 732.794739,255.686493 729.201721,255.686493 
	C729.201721,228.191635 729.201721,200.812057 729.201721,173.210083 
	C732.664795,173.210083 735.929565,173.210083 739.855530,173.210083 
	C739.855530,184.991791 739.855530,196.745911 739.855530,209.000031 
z"/>
<path fill="#454547" opacity="1.000000" stroke="none" 
	d="
M583.941711,256.017242 
	C581.690857,256.017395 579.896118,256.017395 577.960327,256.017395 
	C577.960327,238.293610 577.960327,220.995789 577.960327,203.418427 
	C581.360901,203.418427 584.601990,203.418427 588.139221,203.418427 
	C588.398438,204.819748 588.661011,206.239182 588.927734,207.680878 
	C591.805420,205.728165 594.610901,203.824463 597.923340,201.576736 
	C599.870483,204.953400 601.484863,207.753021 603.317627,210.931290 
	C602.133240,211.381027 601.281982,211.747650 600.403809,212.030975 
	C592.679138,214.523392 588.708984,219.729614 588.596497,228.008682 
	C588.472412,237.146683 588.568176,246.287659 588.568176,255.721069 
	C586.941223,255.836563 585.669556,255.926834 583.941711,256.017242 
z"/>
<path fill="#48484A" opacity="1.000000" stroke="none" 
	d="
M556.129639,207.259552 
	C555.923706,204.525360 556.255737,202.843231 559.224060,203.092072 
	C561.519714,203.284531 563.844421,203.130478 566.512512,203.130478 
	C566.512512,220.826035 566.512512,238.199570 566.512512,255.799240 
	C563.124695,255.799240 559.878662,255.799240 556.129761,255.799240 
	C556.129761,239.629257 556.129761,223.679459 556.129639,207.259552 
z"/>
<path fill="#464648" opacity="1.000000" stroke="none" 
	d="
M564.192932,199.480408 
	C563.014282,199.716690 562.194275,199.866379 561.378052,199.848480 
	C557.382202,199.760941 554.724548,197.751678 554.100891,193.835175 
	C553.529175,190.244934 555.515137,187.886414 558.870056,186.721375 
	C562.846252,185.340637 566.117004,186.464417 568.190918,190.050110 
	C570.184265,193.496582 568.818604,196.375076 565.873718,198.650223 
	C565.490601,198.946182 564.996216,199.097977 564.192932,199.480408 
z"/>
<path fill="#FAFAFA" opacity="1.000000" stroke="none" 
	d="
M249.815216,223.996872 
	C251.197891,224.787674 252.849136,225.551910 252.877533,226.372330 
	C253.095139,232.658264 252.997040,238.955124 252.997040,245.539001 
	C239.432953,245.539001 226.207184,245.539001 212.571548,245.539001 
	C212.571548,238.591156 212.571548,231.568146 212.571548,223.996338 
	C224.827927,223.996338 237.080002,223.996338 249.815216,223.996872 
z"/>
<path fill="#F3F3F3" opacity="1.000000" stroke="none" 
	d="
M237.925583,257.845459 
	C232.910522,260.558502 228.855667,259.880341 224.940445,255.311584 
	C230.205490,255.311584 234.933990,255.311584 240.305664,255.311584 
	C239.425110,256.314545 238.843140,256.977417 237.925583,257.845459 
z"/>
<path fill="#FDFEFD" opacity="1.000000" stroke="none" 
	d="
M832.259277,218.513000 
	C832.135254,207.777954 832.299622,197.481293 832.012329,187.197235 
	C831.898193,183.110748 833.383301,181.813599 837.195557,182.202545 
	C839.660950,182.454056 842.211670,182.111069 844.628540,182.555038 
	C854.514160,184.370911 860.308899,191.485321 860.199158,201.365005 
	C860.091187,211.080002 853.903137,218.354019 843.983337,219.596375 
	C840.197266,220.070541 836.243835,219.209167 832.259277,218.513000 
z"/>
<path fill="#F7FAF7" opacity="1.000000" stroke="none" 
	d="
M786.671875,207.371307 
	C787.251099,209.104446 787.667480,210.471222 788.248657,212.378693 
	C783.035583,212.378693 778.372131,212.378693 773.024963,212.378693 
	C775.462219,205.592194 777.823853,199.016220 780.697083,191.015839 
	C782.954102,197.225082 784.731628,202.115021 786.671875,207.371307 
z"/>
<path fill="#F3F3F3" opacity="1.000000" stroke="none" 
	d="
M443.816895,212.757446 
	C454.856262,204.957474 469.890411,207.923538 473.091370,218.531464 
	C462.175568,218.531464 451.355347,218.531464 439.681335,218.531464 
	C441.186371,216.391907 442.372101,214.706238 443.816895,212.757446 
z"/>
</svg>